<?xml version="1.0" standalone="no"?>
<!DOCTYPE svg PUBLIC "-//W3C//DTD SVG 20010904//EN"
 "http://www.w3.org/TR/2001/REC-SVG-20010904/DTD/svg10.dtd">
<svg version="1.0" xmlns="http://www.w3.org/2000/svg"
 width="300.000000pt" height="300.000000pt" viewBox="0 0 300.000000 300.000000"
 preserveAspectRatio="xMidYMid meet">
<metadata>
Created by potrace 1.14, written by Peter Selinger 2001-2017
</metadata>
<g transform="translate(0.000000,300.000000) scale(0.100000,-0.100000)"
fill="#000000" stroke="none">
<path d="M0 1500 l0 -1500 1500 0 1500 0 0 1500 0 1500 -1500 0 -1500 0 0
-1500z m2477 398 l-4 -573 -25 -96 c-71 -265 -254 -491 -508 -627 -144 -78
-367 -121 -530 -102 -260 31 -427 108 -608 284 -54 52 -104 113 -139 171 -73
117 -96 170 -122 282 -111 476 105 932 540 1137 105 50 190 75 294 86 39 4
303 8 588 9 l518 1 -4 -572z"/>
<path d="M1390 1994 c-73 -15 -188 -70 -243 -115 -43 -35 -85 -96 -134 -193
-33 -64 -37 -80 -41 -173 -3 -61 0 -121 7 -148 53 -212 241 -383 446 -406 271
-30 498 124 580 395 25 84 17 218 -19 306 -75 186 -205 295 -399 336 -82 17
-112 17 -197 -2z m235 -175 c75 -28 160 -107 196 -182 37 -79 45 -154 24 -245
-40 -173 -193 -282 -381 -270 -249 16 -395 257 -304 500 31 83 139 181 230
209 53 16 177 10 235 -12z"/>
</g>
</svg>
