<?xml version="1.0" encoding="UTF-8" standalone="no"?>
<svg
   width="2500"
   height="2500"
   viewBox="0 0 192.756 192.756"
   version="1.1"
   id="svg1256"
   sodipodi:docname="cartier.svg"
   inkscape:export-filename="cartier.svg"
   inkscape:export-xdpi="96"
   inkscape:export-ydpi="96"
   xmlns:inkscape="http://www.inkscape.org/namespaces/inkscape"
   xmlns:sodipodi="http://sodipodi.sourceforge.net/DTD/sodipodi-0.dtd"
   xmlns="http://www.w3.org/2000/svg"
   xmlns:svg="http://www.w3.org/2000/svg">
  <sodipodi:namedview
     id="namedview9"
     pagecolor="#ffffff"
     bordercolor="#000000"
     borderopacity="0.25"
     inkscape:showpageshadow="2"
     inkscape:pageopacity="0.0"
     inkscape:pagecheckerboard="0"
     inkscape:deskcolor="#d1d1d1"
     showgrid="false" />
  <defs
     id="defs1260" />
  <g
     fill-rule="evenodd"
     clip-rule="evenodd"
     id="g1254"
     style="fill:#ff251f;fill-opacity:1">
    <path
       fill="#fff"
       d="M 0,0 H 192.756 V 192.756 H 0 Z"
       id="path1246"
       style="fill:#180000;fill-opacity:0" />
    <path
       id="path1248"
       style="fill:#ffffff;fill-opacity:1"
       d="m 45.602004,67.473033 a 19.963,19.963 0 0 0 -4.638945,0.565016 C 35.381065,69.395048 30.063953,72.186021 25.638957,75.832017 19.918963,80.558013 15.053922,86.517066 11.734925,93.155059 10.024927,96.575056 8.5040032,100.346 8.5040032,104.231 c 0,7.15199 5.0779348,11.94093 12.1689268,11.94093 6.951993,0 14.583095,-4.62488 20.114089,-8.53487 -0.289,0.968 -0.565016,1.96088 -0.565016,2.99088 0,3.205 2.677984,5.3931 5.782981,5.3931 4.751995,0 9.051079,-3.36908 12.194076,-6.65008 -0.490999,1.082 -0.9561,2.20106 -0.9561,3.40606 0,1.937 1.647011,2.81604 3.41901,2.81604 6.599993,0 13.640012,-6.83702 17.990008,-11.43901 l -6.461995,11.28902 h 4.399957 l 9.077001,-15.789122 c 1.042999,-1.824998 2.212077,-3.595946 4.035075,-4.702945 1.809999,-1.092999 4.110006,-2.148928 6.273003,-2.148928 0.741,0 1.848049,0.540974 1.848049,1.420973 0,0.264 -0.08804,0.527958 -0.176041,0.766958 -0.313999,-0.176 -0.617098,-0.288983 -0.981098,-0.288983 -1.269998,0 -2.413967,1.03097 -2.413967,2.324968 0,1.294999 1.044079,2.03704 2.238077,2.03704 1.961998,0 3.695921,-1.34306 5.166911,-2.488058 a 71.345,71.345 0 0 0 4.90203,-4.21202 l -8.735912,15.337057 c -0.805,1.40799 -1.91205,3.02899 -1.91205,4.71499 0,2.023 1.910995,3.08003 3.707993,3.08003 2.829999,0 5.456929,-1.46999 7.706929,-3.06798 4.08599,-2.891 7.65604,-6.45 11.02504,-10.14499 l -3.44491,6.04696 c -0.728,1.27 -1.73405,2.61603 -1.73405,4.13703 0,2.25 1.70899,2.98998 3.79699,2.98998 5.53099,0 11.12492,-5.69299 14.95892,-9.23799 -0.277,1.143 -0.56592,2.28701 -0.56592,3.46901 0,3.98699 3.40807,6.05901 7.09206,6.05901 3.845,0 7.47791,-1.74604 10.69691,-3.67004 3.131,-1.873 6.09806,-4.035 8.88906,-6.387 2.488,-2.1 4.70097,-4.43797 6.81197,-6.925966 l -9.66596,16.681976 h 4.28701 l 5.95887,-10.22104 c 2.375,-4.08599 5.51707,-7.807033 9.61506,-10.246031 1.81,-1.080999 3.98602,-2.137032 6.14802,-2.137032 0.943,0 1.52094,0.378138 1.90994,1.182137 -0.224,-0.025 -0.46496,-0.05 -0.70296,-0.05 -1.193,0 -2.57796,0.943928 -2.57796,2.237927 0,0.815999 0.81792,1.584063 1.62292,1.584063 1.53299,0 2.80309,-1.684028 2.80309,-3.130026 0,-1.557999 -1.194,-2.501009 -2.715,-2.501009 -4.63899,0 -8.62505,3.029973 -11.89304,5.99697 l 3.04102,-5.757983 h -4.17196 l -0.99405,1.772 c -0.754,1.357998 -1.84795,2.589044 -2.84195,3.759043 a 66.706,66.706 0 0 1 -8.63712,8.435941 c -3.695,2.966 -11.15,8.23399 -16.254,8.23399 -2.125,0 -3.99788,-1.73694 -3.99788,-3.88493 0,-1.533 0.61688,-2.94102 1.21888,-4.31202 1.949,-0.012 3.82204,-0.12506 5.70904,-0.64106 3.732,-1.018 7.75608,-2.76604 10.44708,-5.64504 1.219,-1.309003 2.47691,-3.093984 2.47691,-4.978982 0,-2.500997 -2.51599,-3.645949 -4.71499,-3.645949 -6.82599,0 -13.53898,7.63002 -17.64998,12.421021 l -7.44294,6.47299 c -1.796,1.55999 -4.50007,3.60905 -6.93906,3.60905 -0.817,0 -1.43197,-0.73012 -1.43197,-1.52112 0,-0.74199 0.23902,-1.46998 0.60402,-2.11097 l 10.24393,-17.965018 h -4.13492 l -1.89804,3.105028 c -0.691,1.131999 -1.38303,2.26307 -2.16203,3.345069 -1.459,2.023001 -3.18193,3.858991 -4.95293,5.618991 -2.451,2.44 -5.01502,4.86592 -7.82002,6.88892 -1.521,1.107 -3.21701,2.31398 -5.16601,2.31398 -0.867,0 -2.11309,-0.46693 -2.11309,-1.49793 0,-0.803 0.41606,-1.60807 0.80506,-2.29907 l 10.35898,-17.952963 h 6.17406 l 0.33793,-0.804907 h -6.209 l 5.34205,-9.315084 h -4.18597 l -3.09404,5.280008 c -2.27499,3.859997 -5.71807,7.178076 -9.52907,9.529074 -0.615999,0.377 -1.382881,0.903995 -2.13688,0.903995 -0.201,0 -0.363068,-0.07509 -0.527067,-0.188087 0.841999,-0.716999 1.470969,-1.709946 1.470969,-2.866945 0,-1.633998 -1.470989,-2.313072 -2.928988,-2.313072 -2.639997,0 -5.167044,1.105968 -7.392042,2.438966 l 1.219031,-2.187931 h -4.474951 l -2.652051,4.877932 c -2.852997,5.267994 -7.1149,9.454034 -11.803896,13.100034 -1.809998,1.42 -4.526016,3.5961 -6.977014,3.5961 -0.942999,0 -1.974093,-0.6031 -1.974093,-1.6461 0,-0.906 0.440053,-1.80997 0.880052,-2.57796 L 72.644014,92.401956 H 68.40805 l -2.250125,3.921982 c -0.101,-3.431997 -1.734861,-5.128966 -5.279858,-5.128966 -6.725993,0 -12.987125,5.280033 -16.846121,10.346028 -1.243999,1.623 -2.161936,3.36901 -2.991935,5.23001 -5.166995,3.457 -12.509066,8.33399 -18.870059,8.33399 -5.870994,0 -9.02595,-3.83402 -9.02595,-9.57802 0,-4.81599 1.583998,-9.667933 3.657996,-13.954929 4.336996,-9.000991 11.527973,-16.971071 20.553964,-21.396067 2.488998,-1.219999 5.330054,-2.074988 8.121051,-2.074988 3.746997,0 9.278039,2.061997 9.278039,6.486992 0,0.905999 -0.202127,1.760007 -0.453127,2.615007 l 0.628114,0.415027 c 1.420998,-3.871996 2.9419,-6.373971 6.398897,-8.711969 l -0.628867,-0.654015 c -1.469998,1.081999 -3.092074,2.187932 -5.003072,2.187932 -0.541,0 -1.132012,-0.04993 -1.622012,-0.326933 l -2.563956,-1.395975 c -1.772998,-0.979999 -3.910027,-1.244029 -5.909025,-1.244029 z m 15.651034,24.373996 c 2.250998,0 4.048026,1.457944 4.048026,3.745942 0,3.154997 -2.514064,6.901029 -4.363062,9.378029 -2.915997,3.91 -8.322011,9.63103 -13.464006,9.63103 -2.211998,0 -3.41901,-1.8871 -3.41901,-3.92409 0,-1.823 0.666019,-3.41792 1.458019,-5.05292 2.111997,-4.312 5.418041,-8.296989 9.303037,-11.137986 1.923998,-1.420999 3.985998,-2.640005 6.436996,-2.640005 z m 88.929942,0.526917 c 1.131,0 2.47706,0.528051 2.47706,1.82305 0,2.476998 -2.37508,5.432017 -4.04908,7.041014 -2.652,2.551 -6.51193,4.43806 -10.24393,4.43806 -0.39,0 -0.76708,-0.025 -1.15608,-0.039 2.426,-4.04699 7.69303,-13.262114 12.97203,-13.263114 z" />
    <path
       d="m 129.906,87.535 c -0.867,0 -1.559,-0.465 -1.559,-1.396 0,-1.37 1.383,-3.243 2.816,-3.243 0.904,0 1.332,0.817 1.332,1.647 0.001,1.496 -0.993,2.992 -2.589,2.992 z"
       id="path1250"
       style="fill:#ffffff;fill-opacity:1" />
  </g>
</svg>
