<?xml version="1.0" encoding="UTF-8" standalone="no"?>
<!-- Created with Inkscape (http://www.inkscape.org/) -->

<svg
   width="652mm"
   height="652mm"
   viewBox="0 0 652 652"
   version="1.1"
   id="svg967"
   xmlns="http://www.w3.org/2000/svg"
   xmlns:svg="http://www.w3.org/2000/svg">
  <defs
     id="defs964" />
  <g
     id="layer1">
    <g
       id="g814"
       transform="matrix(0.85725873,0,0,0.85725873,180.40473,90.253849)"
       style="fill:#ffffff;fill-opacity:1">
      <path
         class="st0"
         d="m 24.502503,180.26322 c -19.2219548,-26.33657 -47.930068,-43.9359 -80.881991,-49.67752 -7.489073,-1.24818 -14.978147,-1.99708 -22.592038,-1.99708 -60.786304,0 -112.835364,41.31472 -123.694524,98.35649 -12.35697,64.9053 33.07674,127.43906 101.35213,139.17195 7.489066,1.24817 14.978139,1.99708 22.59203,1.99708 60.786312,0 112.835368,-41.31472 123.694528,-98.35649 5.86644,-31.45411 -1.373,-63.15785 -20.470135,-89.49443 m 8.487615,87.2477 c -9.735793,51.30016 -56.792137,88.49589 -111.836826,88.49589 -6.864983,0 -13.729967,-0.62409 -20.470133,-1.74745 -30.830009,-5.36717 -57.416219,-21.96795 -74.641089,-46.93153 -15.9767,-23.09131 -21.96795,-50.80088 -16.85042,-78.01118 9.73579,-51.30015 56.79214,-88.49588 111.836824,-88.49588 6.864984,0 13.729968,0.62409 20.470134,1.74745 29.831475,5.11753 55.7935952,21.09422 73.143282,44.80962 17.224868,23.59058 23.715398,52.04906 18.348228,80.13308 M -78.846708,184.00776 c -9.361341,0 -16.975232,-7.61389 -16.975232,-16.97524 0,-9.36134 7.613891,-16.97523 16.975232,-16.97523 9.361342,0 16.975233,7.61389 16.975233,16.97523 -0.124818,9.36135 -7.738709,16.97524 -16.975233,16.97524 m 86.1243422,19.72122 c 0,0.37446 0.124818,0.87373 0.124818,1.373 0,0.12482 0,0.24964 0,0.49927 v 84.37689 c 0,0.24964 0,0.37446 0,0.49928 0,0.49927 -0.124818,0.99854 -0.124818,1.37299 v 0 c 0,0.37446 -0.124818,0.74891 -0.249636,1.12336 -0.124818,0.49928 -0.249636,0.87373 -0.374454,1.24818 v 0 c -0.124817,0.37446 -0.249635,0.74891 -0.499271,1.12336 -0.249636,0.37446 -0.374454,0.74891 -0.624089,1.12336 v 0.12482 c -0.124818,0.24964 -0.374454,0.62409 -0.62409,0.99855 -0.249636,0.37445 -0.499271,0.62408 -0.748907,0.87372 l -0.124818,0.12482 v 0.12482 c -0.249636,0.24963 -0.499272,0.49927 -0.748907,0.87372 -0.374454,0.24964 -0.62409,0.49927 -0.873726,0.74891 v 0 c -0.249635,0.24963 -0.624089,0.49927 -1.123361,0.74891 -0.124818,0.12481 -0.249635,0.12481 -0.49927096,0.24963 L -72.23136,343.64984 c 0,0 -0.124818,0 -0.124818,0.12481 -0.249635,0.12482 -0.499271,0.24964 -0.748907,0.37446 h -0.124818 -0.124818 c -0.124818,0.12482 -0.374453,0.12482 -0.499271,0.24963 -0.124818,0 -0.124818,0 -0.249636,0.12482 -1.497815,0.62409 -3.120447,0.87373 -4.867898,0.87373 -1.497814,0 -3.120447,-0.24964 -4.618262,-0.87373 -0.124817,0 -0.249635,-0.12482 -0.374453,-0.12482 -0.124818,0 -0.249636,-0.12481 -0.499272,-0.24963 h -0.124817 -0.124818 c -0.249636,-0.12482 -0.62409,-0.24964 -0.873726,-0.49927 0,0 -0.124817,0 -0.124817,-0.12482 l -73.018459,-42.18845 c -0.12482,-0.12482 -0.37445,-0.24963 -0.37445,-0.24963 -0.37446,-0.24964 -0.74891,-0.49928 -0.99855,-0.74891 -0.24963,-0.24964 -0.62409,-0.49927 -0.99854,-0.74891 -0.24964,-0.24963 -0.62409,-0.62409 -0.74891,-0.87372 l -0.12482,-0.12482 -0.12481,-0.12482 c -0.24964,-0.24964 -0.49927,-0.49927 -0.74891,-0.87372 -0.24964,-0.37446 -0.49927,-0.74891 -0.62409,-0.99855 v 0 -0.12482 c -0.12482,-0.24963 -0.37445,-0.62409 -0.49927,-0.99854 -0.12482,-0.37445 -0.24964,-0.74891 -0.37446,-1.12336 v -0.12482 -0.12482 c -0.12481,-0.37445 -0.24963,-0.62408 -0.37445,-1.12336 -0.12482,-0.37445 -0.12482,-0.7489 -0.24963,-1.12336 v -0.12482 c 0,-0.37445 -0.12482,-0.87372 -0.12482,-1.37299 0,-0.12482 0,-0.24964 0,-0.49927 v -84.3769 c 0,-0.24963 0,-0.37445 0,-0.49927 0,-0.49927 0.12482,-0.99854 0.12482,-1.37299 v -0.12482 c 0,-0.37446 0.12481,-0.74891 0.12481,-1.12336 0.12482,-0.37446 0.24964,-0.74891 0.37446,-1.12336 v -0.12482 -0.12482 c 0.12481,-0.37445 0.24963,-0.62409 0.37445,-1.12336 0.12482,-0.37445 0.37445,-0.74891 0.49927,-0.99854 v -0.12482 -0.12482 c 0.12482,-0.24964 0.37446,-0.62409 0.62409,-0.99854 0.24964,-0.37446 0.49927,-0.62409 0.74891,-0.87373 l 0.12482,-0.12482 0.12481,-0.12481 c 0.24964,-0.24964 0.49928,-0.49928 0.87373,-0.87373 0.37445,-0.24963 0.62409,-0.49927 0.87373,-0.74891 0.24963,-0.24963 0.62408,-0.49927 1.12336,-0.7489 0.12481,-0.12482 0.24963,-0.12482 0.49927,-0.24964 l 32.07819,-18.47305 c 0,0 0.12482,0 0.12482,0 1.87227,-0.99854 3.86936,-1.62263 5.99126,-1.62263 4.36863,0 8.48762,2.37154 10.60952,6.11608 1.62263,2.87081 2.12191,6.11607 1.24818,9.36134 -0.87372,3.12045 -2.87081,5.86644 -5.74162,7.48907 l -12.85624,7.61389 -10.73434,6.11608 c -0.12482,0 -0.12482,0.12482 -0.24964,0.12482 0,0 0,0 0,0 -0.12482,0.12482 -0.24963,0.24963 -0.49927,0.37445 v 0 c -0.12482,0.12482 -0.24964,0.12482 -0.37445,0.24964 -0.12482,0.12481 -0.24964,0.24963 -0.37446,0.37445 v 0 c -0.12482,0.12482 -0.24963,0.24964 -0.24963,0.37445 0,0.12482 -0.12482,0.24964 -0.24964,0.37446 l -0.12482,0.12482 v 0.12481 c -0.12481,0.12482 -0.12481,0.24964 -0.24963,0.37446 0,0.12482 -0.12482,0.24963 -0.12482,0.37445 v 0.12482 0.12482 c 0,0.12481 -0.12482,0.24963 -0.12482,0.37445 0,0.12482 0,0.24964 -0.12482,0.37445 v 0.12482 c 0,0.24964 0,0.37446 0,0.49927 0,0.12482 0,0.24964 0,0.37446 v 64.65566 c 0,0.12482 0,0.24964 0,0.37446 0,0.12481 0,0.37445 0,0.49927 v 0.12482 c 0,0.12481 0,0.24963 0.12482,0.37445 0,0.12482 0.12482,0.24964 0.12482,0.37445 v 0.12482 0.12482 c 0,0.12482 0.12482,0.24964 0.12482,0.37445 0,0.12482 0.12482,0.24964 0.24963,0.37446 v 0 l 0.12482,0.12481 c 0.12482,0.12482 0.12482,0.24964 0.24964,0.37446 0,0.12482 0.12481,0.24963 0.24963,0.24963 l 0.12482,0.12482 v 0.12482 c 0.12482,0.12482 0.24964,0.24964 0.24964,0.37445 0.12481,0.12482 0.24963,0.12482 0.24963,0.24964 h 0.12482 c 0.12482,0.12482 0.37445,0.24964 0.49927,0.37445 0.12482,0 0.12482,0.12482 0.24964,0.12482 l 46.681882,26.83585 v -98.85577 c 0,-6.74017 5.491987,-12.23215 12.232152,-12.23215 6.740166,0 12.232153,5.49198 12.232153,12.23215 0,0 0,0 0,0.12482 v 98.85576 l 46.681891,-26.83584 c 0.124817,-0.12482 0.124817,-0.12482 0.249635,-0.12482 0.124818,-0.12482 0.374454,-0.24963 0.499272,-0.37445 l 0.124818,-0.12482 c 0.124818,-0.12482 0.249636,-0.12482 0.249636,-0.24964 0.124817,-0.12481 0.249635,-0.24963 0.374453,-0.37445 v 0 l 0.124818,-0.12482 c 0.124818,-0.12482 0.249636,-0.24963 0.249636,-0.24963 0,-0.12482 0.124818,-0.24964 0.249636,-0.37446 v -0.12482 -0.12481 c 0.124818,-0.12482 0.124818,-0.24964 0.249635,-0.37446 0,-0.12481 0.124818,-0.24963 0.124818,-0.37445 v -0.12482 -0.12482 c 0,-0.12481 0.124818,-0.24963 0.124818,-0.37445 0,-0.12482 0,-0.24964 0.124818,-0.49927 0,-0.24964 0,-0.37446 0,-0.49927 0,-0.12482 0,-0.24964 0,-0.37446 v -64.53084 c 0,-0.12482 0,-0.24964 0,-0.37446 0,-0.12482 0,-0.37445 0,-0.62409 0,-0.12482 0,-0.37445 -0.124818,-0.49927 0,-0.12482 -0.124818,-0.24964 -0.124818,-0.37445 v -0.12482 -0.12482 c 0,-0.12482 -0.124818,-0.37445 -0.124818,-0.37445 0,-0.12482 -0.124817,-0.24964 -0.249635,-0.37446 v -0.12481 0 c -0.124818,-0.12482 -0.124818,-0.24964 -0.249636,-0.37446 0,-0.12482 -0.124818,-0.24963 -0.374454,-0.37445 0,0 0,0 0,0 -0.124818,-0.12482 -0.249636,-0.24964 -0.374453,-0.37446 -0.124818,-0.12481 -0.124818,-0.12481 -0.249636,-0.24963 l -0.124818,-0.12482 c -0.124818,-0.12482 -0.374454,-0.24963 -0.499272,-0.37445 -0.124818,0 -0.124818,-0.12482 -0.249635,-0.12482 l -23.715399,-13.72997 c -2.870812,-1.62263 -4.867898,-4.24381 -5.741623,-7.48907 -0.873725,-3.12045 -0.374454,-6.49053 1.248179,-9.36134 2.246722,-3.74454 6.240894,-6.11608 10.60952,-6.11608 2.121904,0 4.118991,0.49927 5.991259,1.62263 0,0 0.124818,0 0.124818,0.12482 l 21.7183112,12.48179 10.35988504,5.99126 c 0.249636,0.12482 0.374454,0.24963 0.374454,0.24963 0.37445296,0.24964 0.74890696,0.49928 1.12336096,0.74891 v 0 c 0.249635,0.24964 0.624089,0.49927 0.873725,0.74891 0.374454,0.24963 0.624089,0.62409 0.748907,0.87372 l 0.124818,0.12482 0.124818,0.12482 c 0.249636,0.24964 0.499272,0.49927 0.748907,0.87373 0.249636,0.37445 0.374454,0.62408 0.62409,0.99854 v 0.12482 l 0.124818,0.12481 c 0.124818,0.24964 0.374453,0.62409 0.499271,0.99855 0.124818,0.37445 0.249636,0.7489 0.374454,1.12336 v 0.12482 0.12481 c 0.124818,0.37446 0.249636,0.62409 0.374453,1.12336 0.124818,0.37446 0.124818,0.74891 0.249636,1.12337 l 0.374454,0.12481 M 118.49037,370.73532 c 0,1.24818 -0.99854,2.37154 -2.24672,2.37154 -2.37154,0 -3.12044,-2.746 -8.3628,-2.746 -3.86935,0 -6.74016,2.49636 -6.74016,5.99126 0,9.36134 20.09568,4.8679 20.09568,19.22196 0,6.9898 -5.11753,13.35551 -14.35406,13.35551 -5.6168,0 -11.857702,-2.1219 -11.857702,-5.11753 0,-1.373 0.74891,-2.62118 2.24672,-2.62118 1.747446,0 4.243812,3.24527 9.610982,3.24527 5.36717,0 8.73725,-3.86936 8.73725,-8.61244 0,-10.11025 -20.095682,-5.24235 -20.095682,-19.09713 0,-4.99272 4.618272,-10.85916 12.481792,-10.85916 5.24235,-0.12482 10.4847,2.1219 10.4847,4.8679 m 11.35843,23.96503 c 0,5.36717 3.4949,9.61098 9.36134,9.61098 6.98981,0 8.73726,-4.24381 10.73434,-4.24381 0.99855,0 1.87227,0.87373 1.87227,2.37154 0,2.62118 -6.49053,6.49053 -12.73142,6.49053 -10.11025,0 -14.6037,-7.86353 -14.6037,-16.22632 0,-8.61244 5.36717,-16.22633 14.22924,-16.22633 8.61244,0 13.60515,7.86353 13.60515,15.47742 0,1.87227 -0.62409,2.74599 -2.87081,2.74599 z m 17.47451,-3.86935 c 0,-4.49345 -2.62118,-9.7358 -8.3628,-9.7358 -6.49053,-0.24963 -8.86207,4.99272 -8.98689,9.7358 z m 23.7154,-14.35406 c 5.36716,0 8.48761,1.87227 8.48761,3.99417 0,1.12336 -0.87372,2.24672 -2.1219,2.24672 -1.99709,0 -2.746,-1.62263 -6.36571,-1.62263 -6.49053,0 -9.11171,6.36571 -9.11171,11.73288 0,5.36717 2.62118,11.73289 9.11171,11.73289 3.74453,0 4.61826,-1.74746 6.36571,-1.74746 1.24818,0 1.99708,0.74891 1.99708,2.24673 0,1.99708 -2.87081,4.11899 -8.36279,4.11899 -9.61098,0 -14.35406,-7.86353 -14.35406,-16.22633 0.12482,-8.61243 4.74308,-16.47596 14.35406,-16.47596 m 14.10442,2.87081 c 0,-1.74745 0.99854,-2.74599 2.62117,-2.74599 1.62264,0 2.62118,1.12336 2.62118,2.74599 v 16.7256 c 0,5.36717 2.37154,8.23798 7.36425,8.23798 4.99272,0 7.36426,-2.87081 7.36426,-8.23798 v -16.85042 c 0,-1.74745 0.99854,-2.74599 2.62117,-2.74599 1.62264,0 2.62118,1.12336 2.62118,2.74599 v 16.97524 c 0,9.23652 -6.24089,12.6066 -12.60661,12.6066 -6.36571,0 -12.6066,-3.37008 -12.6066,-12.6066 z m 32.70228,0 c 0,-1.74745 0.99855,-2.74599 2.62118,-2.74599 1.62263,0 2.62117,1.12336 2.62117,2.74599 v 2.62118 h 0.12482 c 1.24818,-2.49636 4.11899,-5.49199 7.11462,-5.49199 1.87227,0 2.87081,1.24818 2.87081,2.62118 0,1.49781 -1.12336,2.49635 -3.24526,2.87081 -3.12045,0.49927 -6.86499,2.87081 -6.86499,8.98689 v 15.10296 c 0,1.74745 -0.99854,2.74599 -2.62117,2.74599 -1.62263,0 -2.62118,-1.12336 -2.62118,-2.74599 z m 21.96795,-13.60515 c 1.74745,0 3.24527,1.373 3.24527,3.24527 0,1.87227 -1.373,3.24526 -3.24527,3.24526 -1.74745,0 -3.24526,-1.37299 -3.24526,-3.24526 0,-1.87227 1.49781,-3.24527 3.24526,-3.24527 m 2.62118,40.31618 c 0,1.74745 -0.99855,2.74599 -2.62118,2.74599 -1.62263,0 -2.62117,-1.12336 -2.62117,-2.74599 v -26.83585 c 0,-1.74745 0.99854,-2.74599 2.62117,-2.74599 1.62263,0 2.62118,1.12336 2.62118,2.74599 z m 9.23652,-29.20739 v -6.86498 c 0,-1.74745 0.99854,-2.74599 2.62118,-2.74599 1.62263,0 2.62117,1.12336 2.62117,2.74599 v 6.86498 h 2.12191 c 1.74745,0 2.62117,0.87373 2.62117,2.24673 0,1.37299 -0.87372,2.24672 -2.62117,2.24672 h -2.12191 v 24.71394 c 0,1.74745 -0.99854,2.74599 -2.62117,2.74599 -1.62264,0 -2.62118,-1.12336 -2.62118,-2.74599 v -24.71394 z m 12.73143,4.74308 c -0.62409,-1.74745 -0.74891,-2.37154 -0.74891,-2.87081 0,-1.37299 1.24818,-2.24672 2.37154,-2.24672 1.24818,0 2.24672,0.87373 2.62117,1.99709 l 7.23944,21.71831 h 0.12482 l 7.11462,-21.71831 c 0.37445,-1.12336 1.24818,-1.99709 2.49636,-1.99709 1.24818,0 2.37154,0.87373 2.37154,2.24672 0,0.62409 -0.12482,1.12336 -0.74891,2.87081 l -13.2307,37.81982 c -0.37445,1.12336 -1.24818,1.99709 -2.62117,1.99709 -1.24818,0 -2.37154,-0.87373 -2.37154,-2.24672 0,-0.62409 0.12482,-1.12336 0.7489,-2.87081 l 3.37009,-8.86207 z m 45.93298,-4.74308 v -6.86498 c 0,-1.74745 0.99854,-2.74599 2.62117,-2.74599 1.62264,0 2.62118,1.12336 2.62118,2.74599 v 6.86498 h 2.1219 c 1.74745,0 2.62118,0.87373 2.62118,2.24673 0,1.37299 -0.87373,2.24672 -2.62118,2.24672 h -2.1219 v 24.71394 c 0,1.74745 -0.99854,2.74599 -2.62118,2.74599 -1.62263,0 -2.62117,-1.12336 -2.62117,-2.74599 v -24.71394 z m 26.96066,-0.37445 c 8.98689,0 13.97961,7.86353 13.97961,16.22633 0,8.36279 -4.99272,16.22632 -13.97961,16.22632 -8.98689,0 -13.9796,-7.86353 -13.9796,-16.22632 0,-8.3628 4.99271,-16.22633 13.9796,-16.22633 m 0,27.95921 c 6.49053,0 8.73725,-6.36572 8.73725,-11.73288 0,-5.36717 -2.24672,-11.73289 -8.73725,-11.73289 -6.49053,0 -8.73725,6.36572 -8.73725,11.73289 0,5.36716 2.24672,11.73288 8.73725,11.73288 m 37.81982,2.49636 c -0.37445,1.12336 -1.12336,1.99708 -2.62117,1.99708 -1.373,0 -2.49636,-0.87372 -2.49636,-2.24672 0,-0.74891 0.49927,-2.1219 0.74891,-2.62118 l 13.23069,-35.07382 c 0.62409,-1.87227 1.74745,-3.24527 3.74454,-3.24527 1.99708,0 3.12045,1.373 3.74454,3.24527 l 13.23069,35.07382 c 0.12482,0.49928 0.74891,1.87227 0.74891,2.62118 0,1.373 -1.12336,2.24672 -2.49636,2.24672 -1.373,0 -2.1219,-0.87372 -2.62117,-1.99708 l -2.746,-7.6139 h -19.72122 z m 12.60661,-35.07383 v 0 l -8.23798,22.96649 h 16.47596 z m 35.19864,4.61826 c 5.36717,0 8.48762,1.87227 8.48762,3.99417 0,1.12336 -0.87373,2.24672 -2.1219,2.24672 -1.99709,0 -2.746,-1.62263 -6.36572,-1.62263 -6.49053,0 -9.1117,6.36571 -9.1117,11.73288 0,5.36717 2.62117,11.73289 9.1117,11.73289 3.74454,0 4.61826,-1.74746 6.36572,-1.74746 1.24817,0 1.99708,0.74891 1.99708,2.24673 0,1.99708 -2.87081,4.11899 -8.3628,4.11899 -9.61097,0 -14.35405,-7.86353 -14.35405,-16.22633 0,-8.61243 4.61826,-16.47596 14.35405,-16.47596 m 26.96067,0 c 5.36717,0 8.48761,1.87227 8.48761,3.99417 0,1.12336 -0.87372,2.24672 -2.1219,2.24672 -1.99709,0 -2.74599,-1.62263 -6.36571,-1.62263 -6.49053,0 -9.11171,6.36571 -9.11171,11.73288 0,5.36717 2.62118,11.73289 9.11171,11.73289 3.74453,0 4.61826,-1.74746 6.36571,-1.74746 1.24818,0 1.99709,0.74891 1.99709,2.24673 0,1.99708 -2.87082,4.11899 -8.3628,4.11899 -9.61098,0 -14.35406,-7.86353 -14.35406,-16.22633 0.12482,-8.61243 4.74308,-16.47596 14.35406,-16.47596 m 17.4745,18.22341 c 0,5.36717 3.4949,9.61098 9.36134,9.61098 6.9898,0 8.73725,-4.24381 10.73434,-4.24381 0.99854,0 1.87227,0.87373 1.87227,2.37154 0,2.62118 -6.49053,6.49053 -12.73143,6.49053 -10.11024,0 -14.60369,-7.86353 -14.60369,-16.22632 0,-8.61244 5.36717,-16.22633 14.22924,-16.22633 8.61244,0 13.60515,7.86353 13.60515,15.47742 0,1.87227 -0.62409,2.74599 -2.87081,2.74599 z m 17.47451,-3.86935 c 0,-4.49345 -2.62118,-9.7358 -8.3628,-9.7358 -6.49053,-0.24963 -8.86207,4.99272 -8.98689,9.7358 z m 20.84458,-14.35406 c 4.36863,0 10.60952,2.37154 10.60952,5.61681 0,1.12336 -0.7489,2.1219 -2.37154,2.1219 -2.24672,0 -3.12044,-3.24527 -8.11316,-3.24527 -2.99563,0 -5.49199,1.373 -5.49199,3.99418 0,5.49198 16.97524,4.99271 16.97524,14.10442 0,6.61535 -5.61681,9.73579 -11.60807,9.73579 -6.61535,0 -11.8577,-3.37008 -11.8577,-5.99126 0,-1.37299 0.99855,-2.37154 2.12191,-2.37154 2.37154,0 4.24381,3.86936 9.98543,3.86936 3.86935,0 6.11607,-2.1219 6.11607,-4.24381 0,-6.24089 -16.97523,-5.86644 -16.97523,-14.60369 -0.12482,-5.86644 5.36717,-8.98689 10.60952,-8.98689 m 27.08548,0 c 4.36863,0 10.60952,2.37154 10.60952,5.61681 0,1.12336 -0.7489,2.1219 -2.37154,2.1219 -2.24672,0 -3.12044,-3.24527 -8.11316,-3.24527 -2.99563,0 -5.49198,1.373 -5.49198,3.99418 0,5.49198 16.97523,4.99271 16.97523,14.10442 0,6.61535 -5.61681,9.73579 -11.60807,9.73579 -6.61534,0 -11.8577,-3.37008 -11.8577,-5.99126 0,-1.37299 0.99855,-2.37154 2.12191,-2.37154 2.37154,0 4.24381,3.86936 9.98543,3.86936 3.86935,0 6.11608,-2.1219 6.11608,-4.24381 0,-6.24089 -16.97524,-5.86644 -16.97524,-14.60369 -0.12481,-5.86644 5.36717,-8.98689 10.60952,-8.98689 M 154.68756,171.52597 c 15.22778,0 44.80962,4.99271 44.80962,23.34094 0,7.48908 -5.24235,13.97961 -12.98106,13.97961 -8.61243,0 -14.35405,-7.36426 -31.95338,-7.36426 -25.8373,0 -39.19281,21.84313 -39.19281,47.30598 0,24.83876 13.60515,46.0578 39.19281,46.0578 17.47451,0 24.58913,-8.73725 33.20156,-8.73725 9.36134,0 13.72997,9.36134 13.72997,14.22924 0,19.97086 -31.45411,24.58912 -46.93153,24.58912 -42.31326,0 -71.770282,-33.57601 -71.770282,-76.763 0.12482,-43.18699 29.332202,-76.63818 71.895102,-76.63818 m 71.89511,18.59786 c 0,-9.61097 6.61534,-16.1015 16.1015,-16.1015 h 34.57456 c 46.68189,0 73.39292,30.08111 73.39292,76.38854 0,43.81108 -28.33366,72.14474 -71.39584,72.14474 h -36.322 c -6.86498,0 -16.47596,-3.74453 -16.47596,-15.60223 V 190.12383 Z m 31.32929,103.72367 h 21.09422 c 26.96066,0 39.19282,-19.84605 39.19282,-44.80962 0,-26.71103 -12.48179,-46.0578 -41.31473,-46.0578 h -18.97231 z m 109.46528,-98.23168 c -0.99854,-2.74599 -1.49781,-4.74308 -1.49781,-7.73871 0,-8.73725 7.73871,-14.97814 16.10151,-14.97814 7.11462,0 11.48324,4.61826 14.22924,10.23506 l 32.32783,86.74843 32.32783,-86.74843 c 2.74599,-5.6168 7.11462,-10.23506 14.22924,-10.23506 8.3628,0 16.10151,6.24089 16.10151,14.97814 0,2.87081 -0.37446,4.99272 -1.49782,7.73871 l -45.68334,116.20545 c -2.746,6.61535 -6.2409,12.10734 -15.47742,12.10734 -9.23653,0 -12.73143,-5.36717 -15.47742,-12.10734 z m 142.66685,-6.49053 c 0,-10.4847 6.61535,-16.22632 15.60223,-16.22632 8.98689,0 15.60224,5.86644 15.60224,16.22632 v 118.45218 c 0,10.4847 -6.61535,16.22632 -15.60224,16.22632 -8.98688,0 -15.60223,-5.86644 -15.60223,-16.22632 z"
         id="path4"
         style="fill:#ffffff;fill-opacity:1;stroke-width:1.24818" />
    </g>
  </g>
</svg>
