<svg height="1200" width="1200" version="1.0" viewBox="-45.437 -48.483 393.787 436.349" xmlns="http://www.w3.org/2000/svg"><path d="M43.666 253.903a2.58 2.58 0 0 0-.145.327c-3.913 7.392-11.597 12.428-20.366 12.428C10.435 266.658 0 256.005 0 242.85c0-13.082 10.436-23.81 23.155-23.81 8.807 0 16.526 5.147 20.402 12.649.11.145.145.217.254.434.037.037-7.392 5.4-7.465 5.292-.037-.145-.072-.254-.144-.327-2.14-5.327-7.211-8.878-13.047-8.77-7.791.074-14.206 6.523-14.206 14.53 0 8.083 6.415 14.607 14.206 14.607 5.654 0 10.582-3.48 12.828-8.408.11-.181.146-.326.219-.471zm9.603-34.426h8.914v16.634h23.411v-16.634h8.986v46.276h-8.986v-20.33H62.183v20.33h-8.914zM220.4 265.753v-46.276h32.36v9.349h-23.338v9.24h21.562v9.24h-21.562v9.24h26.634v9.207zm48.304 0v-46.276h9.059v37.07h25.15v9.206h-34.21zm-96.937 0h-9.059v-46.276h12.574l19.822 27.83v-27.83h8.987v46.276h-7.175l-25.149-34.897zm-43.16-36.928-7.899 18.482h16.162l-8.263-18.481zm-11.959 27.722-4.13 9.206H101.79l20.511-46.276h12.538l20.656 46.276h-10.727l-4.166-9.206h-23.955zm39.463-54.892c-9.72 5.62-21.347 8.96-33.735 8.96-25.348 0-47.55-13.82-59.557-34.31 0-.094-.093-.094-.093-.19 0-.095-.098-.095-.098-.19l9.72-5.05 9.72-4.957c.097.1.195.19.288.385 8.29 13.434 23.156 22.394 40.02 22.394 5.435 0 10.675-.952 15.345-2.48-10.388-11.91-16.677-27.537-16.677-44.597 0-16.96 6.196-32.587 16.487-44.597-4.67-1.618-9.817-2.475-15.155-2.475-16.673 0-32.111 8.956-40.592 23.346-.097.095-.097.195-.097.285L62.155 108.08c.093-.19.19-.38.283-.48 11.915-20.867 34.4-34.876 59.938-34.876 12.388 0 24.016 3.336 33.735 9.055 9.72-5.72 21.347-9.055 33.731-9.055 25.539 0 48.028 14.01 59.939 34.876.095.1.19.29.285.48l-19.534 10.098c0-.09 0-.19-.095-.285-8.48-14.39-23.917-23.346-40.595-23.346-5.333 0-10.48.857-15.15 2.475 10.29 12.01 16.487 27.637 16.487 44.597 0 17.06-6.29 32.687-16.678 44.598 4.67 1.527 9.91 2.479 15.341 2.479 16.868 0 31.734-8.96 40.024-22.394.095-.195.19-.286.285-.385l9.718 4.958 9.721 5.049c0 .095-.095.095-.095.19 0 .096-.095.096-.095.19-12.006 20.49-34.21 34.31-59.558 34.31-12.384 0-24.011-3.34-33.73-8.96zm0-27.348c-8.007-8.48-13.15-20.01-13.15-32.687 0-12.482 4.86-23.821 13.15-32.301 8.29 8.48 13.15 19.82 13.15 32.3 0 12.678-5.148 24.208-13.15 32.688z" fill="#161413" fill-rule="evenodd" style="fill:#fff;fill-opacity:1"/></svg>