<svg width="128" height="128" xmlns="http://www.w3.org/2000/svg"><path d="M10.917 8.32h-.054C9.845 6.991 8.576 6.088 6.838 6.088c-2.675 0-4.577 2.257-4.577 4.91 0 2.627 1.764 4.914 4.467 4.914 1.848 0 3.143-.849 4.218-2.287H11v3.018C9.733 17.519 8.436 18 6.892 18 2.977 18 0 15.01 0 11c0-3.952 3.115-7 6.92-7 1.407 0 2.84.48 3.997 1.326ZM27.267 11c0 2.71 1.927 4.913 4.734 4.913 2.806 0 4.733-2.203 4.733-4.913 0-2.68-1.927-4.911-4.733-4.911-2.807 0-4.734 2.23-4.734 4.91M25 11.03C25 7.133 28.09 4 32 4s7 3.133 7 7.03c0 3.893-3.117 6.97-7 6.97-3.884 0-7-3.077-7-6.97m33.342-3.586c-.306-.706-.969-1.355-1.772-1.355-.776 0-1.605.62-1.605 1.468 0 1.212 1.493 1.665 3.016 2.315 1.525.649 3.019 1.58 3.019 3.81C61 16.192 59.007 18 56.599 18c-2.19 0-3.905-1.271-4.599-3.359l1.967-.847c.553 1.243 1.19 2.119 2.658 2.119 1.19 0 2.104-.821 2.104-2.034 0-2.963-5.868-1.948-5.868-6.125 0-2.23 1.77-3.754 3.875-3.754 1.495 0 2.88 1.073 3.46 2.456zM78.636 18h-2.255V6.845H75V4.761h1.381V0h2.255v4.76H81v2.085h-2.364zm24.118-8.44c-.294-1.92-1.807-3.471-3.667-3.471-1.833 0-3.535 1.551-3.802 3.472zm-7.576 1.919c.028 2.456 1.676 4.434 4.094 4.434 1.807 0 2.976-1.159 3.8-2.739l1.806 1.1c-1.195 2.37-3.213 3.726-5.765 3.726C95.392 18 93 14.98 93 11.17 93 7.245 95.153 4 99.059 4c4.012 0 6.14 3.528 5.926 7.479zm30.165-4.035c-.307-.706-.97-1.355-1.773-1.355-.775 0-1.607.62-1.607 1.468 0 1.212 1.496 1.665 3.019 2.315 1.522.649 3.018 1.58 3.018 3.81 0 2.511-1.994 4.318-4.403 4.318-2.186 0-3.904-1.271-4.597-3.359l1.966-.847c.555 1.243 1.192 2.119 2.658 2.119 1.192 0 2.106-.821 2.106-2.034 0-2.963-5.872-1.948-5.872-6.125 0-2.23 1.773-3.754 3.877-3.754 1.497 0 2.881 1.073 3.462 2.456z" style="fill:#fff" transform="translate(5.017 55.706) scale(.92161)"/></svg>