<?xml version="1.0" encoding="UTF-8" standalone="no"?>
<svg
   width="2500"
   height="2500"
   viewBox="0 0 542.331 542.37538"
   version="1.1"
   id="svg28289"
   sodipodi:docname="groupama-2016.svg"
   inkscape:export-filename="..\..\..\Documents\Projets\Cortex Studio\assets\images\brands\groupama.svg"
   inkscape:export-xdpi="96"
   inkscape:export-ydpi="96"
   xmlns:inkscape="http://www.inkscape.org/namespaces/inkscape"
   xmlns:sodipodi="http://sodipodi.sourceforge.net/DTD/sodipodi-0.dtd"
   xmlns="http://www.w3.org/2000/svg"
   xmlns:svg="http://www.w3.org/2000/svg">
  <defs
     id="defs28293" />
  <sodipodi:namedview
     id="namedview28291"
     pagecolor="#ffffff"
     bordercolor="#000000"
     borderopacity="0.25"
     inkscape:showpageshadow="2"
     inkscape:pageopacity="0.0"
     inkscape:pagecheckerboard="0"
     inkscape:deskcolor="#d1d1d1"
     showgrid="false" />
  <g
     id="g30264"
     transform="matrix(1.1132873,0,0,1.1132873,-22.166371,188.00774)">
    <path
       fill="#F04A23"
       d="M 118.124,23.309 C 111.368,22.78 105.853,22.62 97.958,22.951 79.675,23.865 62.869,30.215 48.891,41.122 35.856,51.546 26.674,64.395 23.233,79.073 h 0.704 c 6.154,-19.65 23.991,-35.17 49.723,-39.253 8.114,-1.155 18.88,-0.798 26.507,0.571 z"
       id="path28277"
       style="fill:#ffffff;fill-opacity:1" />
    <path
       fill="#ffffff"
       d="m 66.362,73.655 5.146,-15.348 4.985,15.348 z m 9.023,2.275 4.686,-5.404 h 10.241 l 4.386,5.404 z m -22.208,3.207 2.816,-5.404 h 10.033 l 3.123,5.404 z"
       id="path28279"
       style="fill:#ffffff;fill-opacity:1" />
    <path
       fill="#CADB2B"
       d="m 72.979,84.719 6.031,35.104 a 64.188,64.188 0 0 0 12.052,-4.168 z m 37.804,16.285 -32.94,-16.285 22.837,25.415 c 3.818,-2.684 7.227,-5.756 10.103,-9.13 z M 87.204,84.719 115.482,94.41 c 1.797,-3.082 3.169,-6.326 4.046,-9.691 z m -19.722,36.752 2.321,-36.752 -16.46,35.758 a 56.7,56.7 0 0 0 11.104,1.072 c 1.015,0 2.026,-0.029 3.035,-0.078 z m -25.867,-4.924 23.584,-31.828 -36.107,22.05 c 3.222,3.958 7.47,7.286 12.523,9.778 z M 22.353,84.719 c -0.407,4.408 0.11,8.618 1.427,12.513 L 58.371,84.719 Z"
       id="path28281"
       style="fill:#ffffff;fill-opacity:1" />
    <path
       fill="#00654F"
       d="m 485.72608,106.23459 c -5.145,0 -7.905,-1.762 -7.905,-4.906 0,-3.146002 2.455,-4.757002 7.442,-5.063002 l 11.278,-0.617 v 9.744002 c -4.991,0.688 -8.595,0.842 -10.815,0.842 m 3.217,-31.743002 c -5.526,0 -9.747,0.602 -15.806,1.688 l 0.922,7.435 c 4.452,-0.701 9.357,-1.405 14.194,-1.405 5.369,0 8.287,2.02 8.287,6.372 v 0.479 l -10.665,0.611 c -11.126,0.455 -16.423,4.214 -16.423,11.430002 0,7.9 4.991,12.273 14.118,12.273 4.683,0 8.287,0 21.178,-1.92 V 88.358588 c 10e-4,-9.489 -5.065,-13.867 -15.805,-13.867 m -40.641,0.288 c -5.287,0 -11.659,0.993 -15.419,2.394 -2.604,-1.688 -6.061,-2.394 -10.126,-2.394 -7.06,0 -16.111,1.231 -18.943,1.912 v 35.531002 h 8.817 V 83.396588 c 2.839,-0.414 5.522,-0.558 8.206,-0.558 5.682,0 8.441,2.543 8.441,8.436 v 20.948002 h 8.897 V 88.830588 c 0,-1.838 -0.228,-3.448 -0.61,-4.854 2.912,-0.846 5.906,-1.138 8.821,-1.138 5.68,0 8.441,2.832 8.441,8.593 v 20.791002 h 8.82 V 88.911588 c 10e-4,-10.132 -6.138,-14.132 -15.345,-14.132 m -71.474,31.455002 c -5.14,0 -7.897,-1.762 -7.897,-4.906 0,-3.146002 2.453,-4.757002 7.442,-5.063002 l 11.276,-0.617 v 9.744002 c -4.99,0.688 -8.595,0.842 -10.821,0.842 m 3.226,-31.743002 c -5.527,0 -9.75,0.602 -15.808,1.688 l 0.925,7.435 c 4.448,-0.701 9.355,-1.405 14.194,-1.405 5.368,0 8.284,2.02 8.284,6.372 v 0.479 l -10.667,0.611 c -11.122,0.455 -16.415,4.214 -16.415,11.430002 0,7.9 4.985,12.273 14.113,12.273 4.685,0 8.284,0 21.175,-1.92 V 88.358588 c 0.001,-9.489 -5.066,-13.867 -15.801,-13.867 m -42.615,30.672002 c -2.916,0 -5.525,0.07 -10.505,-0.771 V 82.838588 c 2.986,-0.361 6.056,-0.631 9.817,-0.631 7.828,0 10.816,5.086 10.816,11.91 0.001,6.215002 -3.988,11.046002 -10.128,11.046002 m 0.542,-30.384002 c -7.674,0 -15.347,0.993 -19.869,1.769 v 50.104002 h 8.823 v -14.657 c 4.912,0.613 7.897,0.613 11.736,0.613 10.509,0 17.565,-7.747 17.565,-18.724002 -0.232,-11.528 -6.593,-19.105 -18.255,-19.105 m -28.626,1.148 h -8.898 v 29.154002 a 76.543,76.543 0 0 1 -10.051,0.695 c -5.522,0 -8.287,-2.835 -8.287,-8.590002 v -21.26 h -8.897 v 23.331 c 0,10.126002 6.213,14.115002 15.265,14.115002 7.06,0 16.88,-1.078 20.869,-1.92 V 75.927588 Z m -62.234,29.619002 c -6.83,0 -11.434,-4.682 -11.434,-11.746002 0,-6.899 4.604,-11.444 11.434,-11.444 6.747,0 11.277,4.545 11.277,11.444 0,7.065002 -4.53,11.746002 -11.277,11.746002 m 0,-31.216002 c -12.123,0 -20.332,7.808 -20.332,19.471 0,11.906002 8.209,19.801002 20.332,19.801002 12.041,0 20.254,-7.895 20.254,-19.801002 0,-11.664 -8.213,-19.471 -20.254,-19.471 m -22.106,0.449 c -6.905,0 -16.038,1.064 -22.326,2.242 v 35.201002 h 8.825 V 83.976588 c 4.455,-0.363 8.822,-0.51 13.501,-0.51 z m -30.002,7.428 h -27.545 v 8.542 h 18.795 v 11.347002 c -4.831,1.376 -10.737,2.295 -15.34,2.295 -10.897,0 -18.184,-7.358002 -18.184,-18.503002 0,-10.796 8.055,-18.084 20.177,-18.084 3.07,0 8.287,0.681 15.421,1.993 l 1.834,-8.59 c -6.358,-1.612 -12.882,-2.305 -17.942,-2.305 -17.497,0 -29.156,10.817 -29.156,26.985 0,16.511002 11.126,27.485002 27.85,27.485002 7.597,0 15.729,-2.071 24.09,-5.68 z"
       id="path28287"
       style="fill:#ffffff;fill-opacity:1" />
  </g>
</svg>
