<?xml version="1.0" encoding="UTF-8" standalone="no"?>
<svg
   width="2500"
   height="2500"
   viewBox="0 0 192.756 192.756"
   version="1.1"
   id="svg10"
   xmlns="http://www.w3.org/2000/svg"
   xmlns:svg="http://www.w3.org/2000/svg">
  <defs
     id="defs14" />
  <g
     fill-rule="evenodd"
     clip-rule="evenodd"
     id="g8"
     transform="matrix(0.54547414,0,0,0.54547414,43.806566,43.80575)">
    <path
       d="m 35.53,178.436 c 65.781,13.488 97.431,6.756 102.667,-18.186 7.762,2.898 14.213,2.547 19.029,-1.73 -9.607,31.744 -56.15,39.201 -121.697,23.375 v -3.459 z"
       fill="#f0c660"
       id="path4"
       style="fill:#ffffff;fill-opacity:1" />
    <path
       d="m 146.355,157.982 v -6.031 c 0.748,0 1.449,-0.188 2.129,-0.561 a 3.944,3.944 0 0 0 1.588,-1.566 c 0.375,-0.701 0.562,-1.402 0.562,-2.127 0,-0.748 -0.188,-1.473 -0.586,-2.152 a 3.77,3.77 0 0 0 -1.59,-1.564 4.291,4.291 0 0 0 -2.104,-0.562 V 2.834 h 10.871 v 149.164 c -1.682,5.119 -6.264,6.264 -10.87,5.984 z m 0,-6.732 c 0.631,0 1.217,-0.164 1.777,-0.469 a 3.621,3.621 0 0 0 1.332,-1.332 c 0.305,-0.561 0.469,-1.145 0.469,-1.752 0,-0.633 -0.164,-1.217 -0.492,-1.801 a 3.123,3.123 0 0 0 -1.332,-1.309 3.639,3.639 0 0 0 -1.754,-0.469 v 1.334 c 0.398,0.023 0.701,0.07 0.889,0.139 0.234,0.07 0.422,0.234 0.584,0.445 0.141,0.209 0.211,0.42 0.211,0.654 0,0.352 -0.117,0.631 -0.373,0.889 -0.234,0.256 -0.539,0.396 -0.936,0.42 0.164,0.07 0.281,0.141 0.373,0.234 0.188,0.188 0.422,0.49 0.678,0.912 l 0.562,0.91 h -0.889 l -0.422,-0.725 c -0.256,-0.49 -0.49,-0.816 -0.678,-0.98 v 2.9 z m 0,-3.787 c 0.305,-0.023 0.539,-0.094 0.656,-0.188 a 0.634,0.634 0 0 0 0.232,-0.514 0.55,0.55 0 0 0 -0.117,-0.375 0.632,0.632 0 0 0 -0.303,-0.232 4.198,4.198 0 0 0 -0.469,-0.07 v 1.379 z m 0,-144.629 v 140.583 c -0.701,0 -1.402,0.188 -2.08,0.562 -0.701,0.35 -1.215,0.887 -1.613,1.564 a 4.43,4.43 0 0 0 -0.561,2.152 c 0,0.725 0.188,1.426 0.561,2.127 a 4.05,4.05 0 0 0 1.566,1.566 4.397,4.397 0 0 0 2.127,0.561 v 6.031 c -6.17,-0.352 -12.389,-3.297 -11.805,-2.689 -0.279,12.975 -7.668,20.385 -19.355,24.055 v -25.34 c 0.539,0.023 1.1,0.047 1.66,0.047 13.791,0 23.33,-7.947 23.33,-27.047 V 24.504 h -18.982 c 3.811,2.945 3.811,5.236 3.811,8.299 v 94.205 c 0,7.809 -3.203,11.76 -8.088,11.76 -0.607,0 -1.191,-0.07 -1.73,-0.188 V 2.834 Z m 0,141.285 c -0.584,0 -1.168,0.164 -1.752,0.469 a 3.41,3.41 0 0 0 -1.334,1.309 c -0.303,0.584 -0.467,1.168 -0.467,1.801 0,0.607 0.164,1.191 0.467,1.752 0.328,0.561 0.748,1.006 1.334,1.332 0.561,0.305 1.145,0.469 1.752,0.469 v -2.898 c -0.023,-0.047 -0.07,-0.07 -0.092,-0.094 -0.141,-0.117 -0.328,-0.164 -0.586,-0.164 h -0.443 v 1.963 h -0.748 v -4.604 h 1.869 z m 0,1.965 h -1.121 v 1.379 h 1.121 z m -77.397,-7.316 h 12.413 c 2.922,0 4.675,0 6.99,-2.877 v 16.342 H 68.958 v 28.682 c 17.906,2.057 34.315,2.197 46.237,-1.566 v -25.34 c -12.902,-0.607 -21.669,-8.672 -21.669,-27 V 32.803 c 0,-3.273 0,-6.031 -3.296,-8.299 h 18.608 v 102.503 c 0,6.85 2.453,10.73 6.357,11.572 V 2.834 H 68.958 Z M 67.882,24.504 v 114.263 h 1.076 V 2.834 H 35.53 v 172.679 c 11.244,2.221 22.605,4.162 33.428,5.4 V 152.231 H 52.431 V 32.803 c 0,-2.853 0,-4.582 -2.899,-8.299 z"
       fill="#cc2131"
       id="path6"
       style="fill:#ffffff;fill-opacity:1" />
  </g>
</svg>
