<svg width="800" height="800" viewBox="0 0 32 32" xmlns="http://www.w3.org/2000/svg"><path fill="#fff" d="M30.412 15.914c-.009-.009-.014-.021-.014-.035s.005-.026.014-.035c.346-.307.563-.753.563-1.25l-.002-.079v.004a1.632 1.632 0 0 0-1.812-1.721l.007-.001h-7.559a.047.047 0 0 0-.045.047v.594a.054.054 0 0 0 .05.05h7.113c.599 0 .892.437.892 1.036s-.287 1.036-.889 1.036h-7.113a.05.05 0 0 0-.045.049v.6c0 .023.019.041.042.041h7.117c.786.009.886.774.886 1.161v.075c0 .605-.287 1.04-.886 1.04h-7.114a.042.042 0 0 0-.043.042v.596c0 .025.02.045.045.045h7.55a1.658 1.658 0 0 0 1.804-1.726v.004-.071l.002-.092c0-.541-.215-1.033-.564-1.393v.001zm-21.78-3.117H1.071a.045.045 0 0 0-.046.044v.595c0 .025.02.045.045.045h7.108c.599 0 .886.433.886 1.036s-.285 1.036-.886 1.036H2.557a1.589 1.589 0 0 0-1.531 1.709v-.005 1.888a.05.05 0 0 0 .05.046h1.286c.026 0 .048-.02.049-.046v-1.888a.908.908 0 0 1 .846-1.023h5.38a1.626 1.626 0 0 0 1.802-1.719v.005a1.63 1.63 0 0 0-1.807-1.721l.007-.001zm11.564 0h-3.928a1.632 1.632 0 0 0-1.804 1.727v-.005 2.951c0 .603-.285 1.036-.886 1.036h-3.437a.044.044 0 0 0-.044.044v.592c0 .019.016.035.035.035h3.884a1.634 1.634 0 0 0 1.81-1.723v.005-2.949c0-.604.28-1.038.886-1.038h3.474a.047.047 0 0 0 .047-.041v-.593a.048.048 0 0 0-.048-.044h-.002z"/></svg>