<?xml version="1.0" encoding="UTF-8" standalone="no"?>
<svg
   width="2500"
   height="2500"
   viewBox="0 0 192.756 192.756"
   version="1.1"
   id="svg10"
   xmlns="http://www.w3.org/2000/svg"
   xmlns:svg="http://www.w3.org/2000/svg">
  <defs
     id="defs14" />
  <g
     id="g8">
    <path
       fill="#ffffff"
       d="m 83.101,56.053 0.404,0.524 -0.726,2.099 -0.485,1.453 0.162,0.605 0.323,0.444 0.202,0.727 -0.485,1.331 -0.726,1.251 c -1.25,2.26 -1.897,3.632 -1.897,4.076 0,0.525 0.404,0.929 1.17,1.13 0.928,0.202 1.413,0.524 1.413,0.968 l -0.524,1.332 0.242,0.606 0.202,0.202 v 0.202 l -0.081,0.04 -0.041,0.162 -0.161,0.525 0.202,0.564 0.364,0.323 0.161,0.726 v 0.202 l -0.121,0.848 -0.04,0.605 c 0,1.13 1.25,1.655 3.793,1.655 1.654,0 2.704,0.202 3.188,0.524 0.524,0.403 0.767,1.17 0.767,2.38 0,3.632 -1.493,7.426 -4.479,11.501 -1.05,1.574 -1.574,2.462 -1.574,2.906 0,0.283 0.121,0.404 0.404,0.404 1.574,0 4.197,-1.332 7.829,-3.996 4.923,-3.632 9.242,-5.73 12.833,-6.295 0.887,-0.121 1.332,-0.363 1.332,-0.767 0,-0.525 -0.324,-1.735 -1.051,-3.511 -0.846,-2.22 -1.25,-4.076 -1.25,-5.528 0,-0.969 0.08,-1.574 0.242,-1.816 0.201,-0.363 0.807,-0.686 1.654,-1.089 1.252,-0.565 2.059,-1.251 2.461,-1.978 l 1.373,-2.099 c 1.332,-1.493 1.977,-3.229 1.977,-5.004 v -1.251 l 0.203,-1.775 0.242,-0.969 0.281,-2.26 -0.201,-1.654 -0.283,-0.767 -0.322,-1.776 c -0.322,-3.107 -1.977,-5.367 -4.924,-6.618 -0.727,-0.323 -1.371,-0.646 -1.936,-1.049 -1.293,-1.009 -2.826,-1.574 -4.521,-1.574 l -1.049,0.081 -3.309,-0.525 -1.977,-0.202 -2.704,0.524 -2.018,0.404 c -1.13,0.121 -2.502,0.645 -4.157,1.573 l -2.502,1.897 -0.404,0.525 -0.605,0.645 c -0.726,0.727 -1.13,1.615 -1.13,2.704 -0.001,1.858 0.726,3.109 2.259,3.835 z m -72.72,56.074 c -2.018,0 -3.793,0.605 -5.166,1.775 -1.413,1.211 -2.139,2.664 -2.139,4.359 0,2.299 1.775,4.398 5.407,6.254 l 1.897,1.01 3.309,2.098 c 0.525,0.605 0.807,1.291 0.807,2.219 0,1.131 -0.484,2.141 -1.332,2.986 -0.928,0.768 -2.058,1.172 -3.35,1.172 -3.228,0 -5.408,-1.695 -6.457,-5.086 H 2.956 l -0.122,5.045 c 2.543,1.373 4.924,2.018 7.103,2.018 2.301,0 4.238,-0.727 5.812,-2.098 1.493,-1.373 2.3,-3.148 2.3,-5.207 0,-1.533 -0.403,-2.703 -1.21,-3.672 -0.727,-1.008 -2.139,-1.977 -4.197,-2.986 l -2.099,-0.969 c -2.583,-1.25 -3.915,-2.582 -3.915,-3.914 0,-0.969 0.364,-1.816 1.09,-2.422 0.686,-0.645 1.614,-1.008 2.744,-1.008 2.179,0 4.076,1.332 5.65,4.035 h 0.282 l 0.041,-4.156 c -2.341,-0.969 -4.399,-1.453 -6.054,-1.453 z m 23.083,9.16 v -3.551 c -1.533,-0.605 -3.027,-0.928 -4.601,-0.928 -2.704,0 -4.883,0.928 -6.537,2.703 -1.736,1.775 -2.583,4.035 -2.583,6.779 0,2.826 0.807,5.125 2.381,6.941 1.574,1.775 3.632,2.705 6.174,2.705 1.856,0 3.591,-0.605 5.206,-1.736 l 0.484,-2.502 -0.121,-0.08 c -1.412,1.533 -2.945,2.34 -4.56,2.34 -1.695,0 -3.107,-0.727 -4.076,-2.26 -1.009,-1.453 -1.533,-3.43 -1.533,-6.014 0,-2.219 0.484,-3.994 1.453,-5.326 1.009,-1.371 2.3,-2.018 3.955,-2.018 1.776,0 3.147,0.969 4.076,2.945 h 0.282 z m 1.453,-18.037 c 0.565,0.605 0.929,1.773 0.929,3.43 v 25.223 c 0,1.773 -0.364,2.945 -1.09,3.551 v 0.08 h 6.013 v -0.08 c -0.726,-0.646 -1.049,-1.857 -1.049,-3.471 v -7.346 c 0,-3.793 1.493,-5.73 4.479,-5.73 1.453,0 2.421,0.404 3.027,1.211 0.525,0.848 0.807,2.342 0.807,4.52 v 10.896 h 4.843 v -0.08 c -0.727,-0.605 -1.09,-1.777 -1.09,-3.471 v -7.668 c -0.081,-5.004 -2.139,-7.506 -6.134,-7.506 -2.099,0 -4.076,0.848 -5.933,2.502 v -16.184 h -4.802 z m 33.656,14.043 h -1.978 l -4.358,13.559 -3.35,-11.258 -0.121,-0.93 c 0,-0.523 0.242,-1.008 0.727,-1.332 v -0.119 h -6.215 v 0.119 c 0.928,0.605 1.896,2.584 2.906,6.055 l 3.632,12.146 h 2.825 l 3.955,-12.268 3.632,12.268 h 2.744 l 4.802,-14.77 c 0.606,-1.775 1.534,-2.906 2.785,-3.35 v -0.121 H 75.03 v 0.121 c 0.848,0.201 1.251,0.766 1.251,1.654 l -0.605,2.422 -3.107,9.361 z m 44.392,1.775 3.227,-0.08 -10.047,16.545 h 14.729 l 0.445,-4.277 h -0.203 c -0.645,1.049 -1.291,1.695 -1.936,2.018 l -3.189,0.525 h -4.479 l 9.967,-16.467 h -12.711 l -0.686,3.754 h 0.201 c 0.807,-1.373 2.381,-2.018 4.682,-2.018 z m 9.926,-15.818 c 0.688,0.605 1.01,1.773 1.01,3.43 v 25.223 c 0,1.773 -0.402,2.945 -1.131,3.551 v 0.08 h 6.014 v -0.08 c -0.727,-0.646 -1.049,-1.857 -1.049,-3.471 v -6.457 l 7.506,10.008 h 5.205 v -0.08 l -9.281,-11.785 7.344,-6.336 v -0.119 h -5.971 v 0.119 c 0.402,0.121 0.605,0.484 0.605,1.01 0,1.049 -1.414,2.744 -4.117,5.045 l -1.291,1.129 v -21.389 h -4.844 z m 65.416,3.631 c -2.301,0 -3.873,0.646 -4.842,2.018 -1.01,1.332 -1.453,3.551 -1.453,6.779 v 1.654 h -1.252 l -0.604,1.736 1.855,-0.08 v 12.793 c 0,1.775 -0.322,2.945 -1.049,3.672 v 0.08 h 5.932 v -0.08 c -0.727,-0.605 -1.09,-1.777 -1.09,-3.471 l -0.039,-12.994 h 2.945 l 0.322,-1.656 h -3.229 v -5.77 c 0,-2.059 0.686,-3.107 1.938,-3.107 0.646,0 1.17,0.322 1.574,0.969 h 0.08 l 0.525,-2.342 z m -91.08,10.451 c 0.604,0.605 0.928,1.775 0.928,3.512 v 11.059 c 0,1.773 -0.324,2.945 -1.049,3.551 v 0.08 h 5.932 v -0.08 c -0.727,-0.646 -1.09,-1.857 -1.09,-3.471 v -8.838 c 0,-2.18 0.928,-3.311 2.865,-3.311 0.848,0 1.492,0.324 1.938,1.01 h 0.16 l 0.242,-3.834 c -2.018,0.121 -3.752,0.969 -5.205,2.623 v -2.42 h -4.721 z m -10.696,1.01 c 1.937,0 2.865,0.889 2.865,2.824 0,1.494 -1.453,2.826 -4.278,4.076 -2.34,1.01 -3.954,1.857 -4.842,2.703 -0.847,0.848 -1.251,1.896 -1.251,3.311 0,1.291 0.484,2.42 1.332,3.268 0.928,0.85 2.059,1.252 3.43,1.252 1.897,0 3.834,-0.768 5.811,-2.301 v 2.059 h 4.722 v -0.08 c -0.727,-0.605 -1.049,-1.777 -1.049,-3.551 l -0.081,-8.637 c 0,-2.381 -0.363,-4.035 -1.251,-5.004 -0.847,-0.969 -2.3,-1.453 -4.318,-1.453 -1.654,0 -3.511,0.484 -5.569,1.371 l -0.646,3.311 h 0.403 c 1.373,-2.1 2.947,-3.149 4.722,-3.149 z m 3.067,6.053 v 5.246 c 0,2.705 -1.251,4.035 -3.712,4.035 -0.847,0 -1.493,-0.322 -2.099,-0.928 -0.605,-0.605 -0.847,-1.332 -0.847,-2.178 0,-0.93 0.242,-1.695 0.767,-2.301 0.605,-0.605 1.574,-1.332 3.107,-2.1 z"
       id="path4" />
    <path
       fill="#ffffff"
       d="m 156.305,119.432 c -1.855,-1.896 -4.076,-2.824 -6.779,-2.824 -2.824,0 -5.205,0.928 -7.102,2.824 -1.938,1.855 -2.826,4.156 -2.826,6.941 0,2.703 0.889,5.043 2.826,6.98 1.896,1.896 4.197,2.826 6.98,2.826 2.744,0 5.045,-0.93 6.9,-2.826 1.857,-1.938 2.785,-4.236 2.785,-6.98 0.001,-2.705 -0.927,-5.004 -2.784,-6.941 z m -7.182,-1.252 c 1.734,0 3.105,0.809 4.156,2.463 1.008,1.654 1.533,3.873 1.533,6.576 0,2.301 -0.484,4.076 -1.412,5.408 -0.928,1.373 -2.18,2.018 -3.754,2.018 -1.695,0 -3.066,-0.846 -4.197,-2.502 -1.129,-1.613 -1.654,-3.793 -1.654,-6.457 0,-2.219 0.525,-4.074 1.533,-5.447 0.969,-1.372 2.221,-2.059 3.795,-2.059 z m 27.481,1.05 c -1.451,-1.615 -3.309,-2.422 -5.527,-2.422 -2.381,0 -4.277,0.928 -5.689,2.703 v -2.299 h -4.803 v 0.119 c 0.686,0.605 1.008,1.775 1.008,3.512 v 24.293 c 0,1.695 -0.322,2.906 -1.049,3.553 v 0.119 h 5.932 v -0.119 c -0.727,-0.605 -1.088,-1.775 -1.088,-3.471 v -10.492 a 7.567,7.567 0 0 0 4.156,1.211 c 2.582,0 4.68,-1.01 6.457,-3.068 1.775,-2.018 2.703,-4.479 2.703,-7.344 -0.001,-2.584 -0.727,-4.64 -2.1,-6.295 z m -7.102,-0.445 c 1.574,0 2.824,0.727 3.793,2.1 0.928,1.453 1.412,3.389 1.412,5.689 0,2.34 -0.484,4.277 -1.453,5.73 -1.008,1.371 -2.26,2.098 -3.914,2.098 -2.541,0 -3.873,-1.371 -3.953,-4.236 v -5.973 c 0,-3.632 1.412,-5.408 4.115,-5.408 z"
       id="path6" />
  </g>
</svg>
