<svg version="1.0" id="Layer_1" x="0" y="0" xml:space="preserve" width="546" height="546" xmlns="http://www.w3.org/2000/svg"><style type="text/css" id="style2">.st1{fill:#014fa2}</style><g id="g10" transform="translate(.3 87.7)"><path d="M246.6 97.3c6 4.3 13.3 9.4 16.6 18.5 5.4 15.1-3.5 38.1 3.7 53.5-8.6-5-15.4-11.4-16.6-23.4-1.9-16.6 6.5-37.7-3.7-48.6zm36.9 0c2.5 16.2-5.2 27.7-11.7 36.9-7.7-15.3 8.3-24.7 11.7-36.9zm51 5c1.1 2.1-2.1 1.8-3.1 2.5-22.8 15-47.7 33.2-59.1 60.3-2.1-38.8 26.7-57.3 62.2-62.8z" id="path4" style="fill:#fff;fill-opacity:1"/><path class="st1" d="M241.7 93.6C166.3 128.9 129.5 202.9 92.8 277c-5.9-53.2-10.6-107.6-15.4-161.8 7.3 1 16.4.4 24.6.6 1.8 36.9 5.3 72.2 7.4 108.9 28.1-59.7 66.8-108.8 132.3-131.1Z" id="path6" style="fill:#fff;fill-opacity:1"/><path class="st1" d="M415.1 144.1c-5.8 17.7-11.7 35.4-17.2 53.5 22.1 1.4 47 .2 70.1.6-.2 7.1-8.3 5.5-14.2 5.5h-57.2c-5.2 19.1-12.4 52.1 7.4 60.3 14.1 4.8 31.4-.2 41.2-5.5 5.3-3 9.2-8.5 15.4-8.6.7 3.3-3.7 5.8-6.2 8-9.8 8.2-21.8 13.3-34.5 14.8-20.5 2-42.2-5.3-48.6-22.8-4.7-13-.4-32.6 3.7-45.5-28.1-1.5-58.8-.2-88-.6-13 22.2-12.1 70.9 26.5 60.9 4.8-1.2 10.3-3.4 14.8-5.5 6.8-3.3 11.9-11 19.1-9.2 1 2.7-3.9 4.9-6.8 7.4-9 8.4-20.4 13.8-32.6 15.4-23.2 2.3-48.7-9.3-51.7-30.8-2.1-15.6 3.1-28.1 8.6-38.1h-87.4c-14.2 23.4-11.1 71.4 28.3 60.3 5.5-1.6 11.9-4.1 16.6-6.8 4.9-2.8 8.7-8.9 15.4-8 .6 3.4-3.6 5.8-6.2 8-10.3 8.6-24 17.1-44.9 15.4-24.1-2.1-43.1-16.2-40-45.5.6-5.1 2.5-11.4 4.3-16 10.3-24.4 32.8-41.5 59.1-44.9 15.4-1.8 30 3 38.1 10.5 5.7 5.1 8.7 11.4 10.5 21.5h8.6c11.7-19.9 50.6-43.1 81.8-27.7 10.7 5.3 18 15.8 19.1 27.7h7.4c3.4-10.5 7-20.5 9.8-31.4 10.7-7.1 18.2-17 29.7-22.9zm-191.9 27.1c-19.1-5-36.9 14.2-42.5 27.1h55.4c.8-15-3.1-24.7-12.9-27.1zm110.7 0c-19.7-5.9-38 14.3-43.7 27.1h55.4c1-14.3-3-24.6-11.7-27.1z" id="path8" style="fill:#fff;fill-opacity:1"/></g></svg>