<?xml version="1.0" encoding="UTF-8" standalone="no"?>
<svg
   _ngcontent-costes-c205903650=""
   width="128"
   height="128"
   viewBox="0 0 128 128"
   version="1.1"
   alt="Hôtel Costes Logo"
   id="svg10"
   sodipodi:docname="costes.svg"
   xmlns:inkscape="http://www.inkscape.org/namespaces/inkscape"
   xmlns:sodipodi="http://sodipodi.sourceforge.net/DTD/sodipodi-0.dtd"
   xmlns="http://www.w3.org/2000/svg"
   xmlns:svg="http://www.w3.org/2000/svg"
   xmlns:rdf="http://www.w3.org/1999/02/22-rdf-syntax-ns#"
   xmlns:cc="http://creativecommons.org/ns#"
   xmlns:dc="http://purl.org/dc/elements/1.1/">
  <defs
     id="defs14" />
  <sodipodi:namedview
     id="namedview12"
     pagecolor="#ffffff"
     bordercolor="#000000"
     borderopacity="0.25"
     inkscape:showpageshadow="2"
     inkscape:pageopacity="0.0"
     inkscape:pagecheckerboard="0"
     inkscape:deskcolor="#d1d1d1"
     showgrid="false"
     inkscape:zoom="7.0158251"
     inkscape:cx="52.09651"
     inkscape:cy="36.061332"
     inkscape:window-width="1920"
     inkscape:window-height="1009"
     inkscape:window-x="1912"
     inkscape:window-y="-8"
     inkscape:window-maximized="1"
     inkscape:current-layer="g251" />
  <title
     _ngcontent-costes-c205903650=""
     id="title2">Hôtel Costes</title>
  <g
     id="g251"
     transform="matrix(0.9216098,0,0,0.9216098,5.0169728,55.705512)">
    <path
       _ngcontent-costes-c205903650=""
       d="m 10.917153,8.3192709 h -0.05374 C 9.8446194,6.9920865 8.5757905,6.0889592 6.8382413,6.0889592 c -2.6749898,0 -4.5774868,2.257054 -4.5774868,4.9106588 0,2.626098 1.7644185,4.912951 4.467024,4.912951 1.848012,0 3.1429638,-0.848114 4.2184825,-2.286853 H 11 v 3.018065 C 9.7334102,17.519402 8.4362193,18 6.8919799,18 2.9765233,18 0,15.009442 0,10.999618 0,7.0478633 3.1153481,4 6.920342,4 8.3265029,4 9.7595332,4.4798341 10.917153,5.3264203 Z"
       id="Fill-11"
       style="fill:#ffffff" />
    <path
       _ngcontent-costes-c205903650=""
       d="m 27.267098,10.999618 c 0,2.710146 1.927225,4.912951 4.733669,4.912951 2.806445,0 4.73367,-2.202805 4.73367,-4.912951 0,-2.6803471 -1.927225,-4.9106588 -4.73367,-4.9106588 -2.806444,0 -4.733669,2.2303117 -4.733669,4.9106588 M 25,11.029417 C 25,7.1326748 28.089544,4 32.000767,4 35.910456,4 39,7.1326748 39,11.029417 39,14.923102 35.882837,18 32.000767,18 28.116396,18 25,14.923102 25,11.029417"
       id="Fill-12"
       style="fill:#ffffff" />
    <path
       _ngcontent-costes-c205903650=""
       d="M 58.341965,7.4436501 C 58.03622,6.7384162 57.373022,6.0889592 56.569692,6.0889592 c -0.775604,0 -1.604413,0.6204224 -1.604413,1.4677728 0,1.2118103 1.492756,1.6656661 3.015487,2.3151231 C 59.505745,10.520548 61,11.451946 61,13.681493 61,16.192981 59.006661,18 56.598918,18 54.409242,18 52.693922,16.728593 52,14.641161 l 1.967111,-0.84735 c 0.553039,1.243137 1.190008,2.118758 2.658035,2.118758 1.190008,0 2.103497,-0.820608 2.103497,-2.033946 0,-2.962288 -5.867611,-1.947607 -5.867611,-6.1247617 C 52.861032,5.5243137 54.630308,4 56.736053,4 c 1.495004,0 2.879101,1.0727501 3.459118,2.4564755 z"
       id="Fill-13"
       style="fill:#ffffff" />
    <polygon
       _ngcontent-costes-c205903650=""
       id="Fill-14"
       points="78.635994,18 76.381037,18 76.381037,6.8454141 75,6.8454141 75,4.7606016 76.381037,4.7606016 76.381037,0 78.635994,0 78.635994,4.7606016 81,4.7606016 81,6.8454141 78.635994,6.8454141 "
       style="fill:#ffffff" />
    <path
       _ngcontent-costes-c205903650=""
       d="m 102.75394,9.5608798 c -0.2935,-1.9208645 -1.80706,-3.4719206 -3.66735,-3.4719206 -1.832955,0 -3.534984,1.5510561 -3.801871,3.4719206 z m -7.575687,1.9178082 c 0.02806,2.456476 1.676132,4.433881 4.093935,4.433881 1.807062,0 2.976032,-1.158326 3.798992,-2.738416 l 1.80706,1.099492 C 103.68265,16.643781 101.66481,18 99.113207,18 95.391906,18 93,14.979643 93,11.169241 93,7.2457567 95.153075,4 99.058535,4 c 4.012645,0 6.139825,3.5284615 5.926895,7.478688 z"
       id="Fill-15"
       style="fill:#ffffff" />
    <path
       _ngcontent-costes-c205903650=""
       d="m 125.34302,7.4436501 c -0.30729,-0.7052339 -0.9706,-1.3546909 -1.77257,-1.3546909 -0.77573,0 -1.60768,0.6204224 -1.60768,1.4677728 0,1.2118103 1.49601,1.6656661 3.01899,2.3151231 C 126.504,10.520548 128,11.451946 128,13.681493 128,16.192981 126.00633,18 123.59669,18 121.41114,18 119.69254,16.728593 119,14.641161 l 1.96594,-0.84735 c 0.55463,1.243137 1.19171,2.118758 2.65848,2.118758 1.1917,0 2.10534,-0.820608 2.10534,-2.033946 0,-2.962288 -5.87158,-1.947607 -5.87158,-6.1247617 C 119.85818,5.5243137 121.63075,4 123.73534,4 c 1.49676,0 2.88108,1.0727501 3.4612,2.4564755 z"
       id="Fill-16"
       style="fill:#ffffff" />
  </g>
  <metadata
     id="metadata243">
    <rdf:RDF>
      <cc:Work
         rdf:about="">
        <dc:title>Hôtel Costes</dc:title>
      </cc:Work>
    </rdf:RDF>
  </metadata>
</svg>
