<?xml version="1.0" encoding="UTF-8" standalone="no"?>
<svg
   height="2000"
   viewBox="0 0 403.2 337.36001"
   width="2000"
   version="1.1"
   id="svg4"
   xmlns="http://www.w3.org/2000/svg"
   xmlns:svg="http://www.w3.org/2000/svg">
  <defs
     id="defs8" />
  <path
     fill="#ffffff"
     d="m 224.98366,178.1288 c -0.22429,0.0561 -1.12151,0.0561 -1.51404,0.0561 h -28.93519 v 6.72912 h 29.43987 c 0.2243,0 1.96266,0 2.29912,-0.0561 6.00012,-0.56075 8.74784,-5.55152 8.74784,-9.92544 0,-4.48607 -2.85987,-9.30861 -8.29923,-9.8133 -1.06546,-0.11214 -1.96266,-0.11214 -2.3552,-0.11214 h -19.23405 c -0.84114,0 -1.79443,-0.0561 -2.13088,-0.16824 -1.51406,-0.39253 -2.07482,-1.73834 -2.07482,-2.85986 0,-1.00936 0.56076,-2.35519 2.13089,-2.8038 0.44862,-0.11215 0.95329,-0.16823 2.01875,-0.16823 h 27.75759 v -6.61696 h -28.2062 c -1.17761,0 -2.07482,0.056 -2.80381,0.16823 -4.82253,0.67291 -8.18709,4.54214 -8.18709,9.47682 0,4.03749 2.52342,8.74787 8.07495,9.53292 1.00936,0.11216 2.41126,0.11216 3.0281,0.11216 h 18.72936 c 0.33644,0 1.1776,0 1.34582,0.056 2.13088,0.28038 2.85987,1.85051 2.85987,3.2524 0,1.34583 -0.84114,2.8038 -2.69165,3.14025 z m -54.84226,0 c -0.22431,0.0561 -1.12152,0.0561 -1.45797,0.0561 h -28.99127 v 6.72912 h 29.43987 c 0.22429,0 1.96266,0 2.29911,-0.0561 6.00013,-0.56075 8.74785,-5.55152 8.74785,-9.92544 0,-4.48607 -2.85988,-9.30861 -8.29924,-9.8133 -1.06544,-0.11214 -1.96266,-0.11214 -2.35519,-0.11214 h -19.23404 c -0.84115,0 -1.79444,-0.0561 -2.1309,-0.16824 -1.51405,-0.39253 -2.07481,-1.73834 -2.07481,-2.85986 0,-1.00936 0.56076,-2.35519 2.13089,-2.8038 0.44862,-0.11215 0.95329,-0.16823 2.01874,-0.16823 h 27.75758 v -6.61696 h -28.2062 c -1.17759,0 -2.07481,0.056 -2.80379,0.16823 -4.82253,0.67291 -8.18708,4.54214 -8.18708,9.47682 0,4.03749 2.52341,8.74787 8.07493,9.53292 1.00937,0.11216 2.41126,0.11216 3.0281,0.11216 h 18.72937 c 0.33645,0 1.17759,0 1.34582,0.056 2.13088,0.28038 2.85986,1.85051 2.85986,3.2524 0,1.34583 -0.78505,2.8038 -2.69163,3.14025 z m -52.82354,-25.96316 h 7.28987 v 32.91657 h -7.28987 z m -47.664551,0 h -9.364683 v 32.91657 h 7.289873 V 160.4088 l 24.449116,24.67341 h 9.196455 v -32.91657 h -7.289878 v 24.56126 z m 232.378711,32.91657 h 7.28987 V 160.4088 l 24.39304,24.67341 h 9.19644 v -32.91657 h -7.23378 v 24.56126 l -24.2809,-24.56126 h -9.36467 z m -37.96341,-32.91657 -20.5238,32.91657 h 8.85999 l 3.64495,-5.88797 h 23.94442 l 3.64493,5.88797 h 8.80393 l -20.5238,-32.91657 z m 12.16847,20.80418 h -16.43025 l 8.24316,-13.23393 z M 100.83154,133.49235 c 14.69189,-42.898098 55.17871,-71.721129 100.82454,-71.721129 45.64581,0 86.18872,28.823031 100.82454,71.721129 l 0.11216,0.33645 h 32.13151 v -3.86924 l -13.34609,-1.57013 c -8.24316,-0.95329 -9.98151,-4.59823 -12.22455,-9.19645 l -0.56075,-1.12151 C 289.30278,77.023872 247.30189,50.443878 201.65608,50.443878 c -45.7019,0 -87.6467,26.579994 -106.936821,67.739742 l -0.560758,1.12151 c -2.24304,4.59823 -3.981391,8.24316 -12.224564,9.19646 l -13.34607,1.57013 v 3.86923 H 100.6633 Z m 201.76124,69.98277 -0.11216,0.33647 c -14.69189,42.89808 -55.17873,71.66504 -100.82454,71.66504 -45.64583,0 -86.18872,-28.82303 -100.82454,-71.72112 l -0.11216,-0.33646 H 68.643942 v 3.86924 l 13.346072,1.57013 c 8.243163,0.95328 9.981523,4.59822 12.224556,9.19644 l 0.560767,1.12152 c 19.290123,41.15975 61.291003,67.73975 106.936823,67.73975 45.64582,0 87.64669,-26.58 106.93682,-67.68367 l 0.56075,-1.12152 c 2.24304,-4.59822 3.9814,-8.24316 12.22456,-9.19644 l 13.34608,-1.57013 v -3.86924 z"
     id="path2"
     style="stroke-width:0.560759" />
</svg>
