<?xml version="1.0" encoding="UTF-8" standalone="no"?>
<svg
   width="2500"
   height="2500"
   viewBox="0 0.202 1024 1024.2738"
   version="1.1"
   id="svg6"
   xmlns="http://www.w3.org/2000/svg"
   xmlns:svg="http://www.w3.org/2000/svg">
  <defs
     id="defs10" />
  <path
     d="m 821.968,407.9994 -108.204,196.069 h 61.83 l 9.356,-19.933 h 73.628 l 9.763,19.933 h 61.424 l -8.136,-14.645 z m -727.733,1.627 v 194.442 h 57.763 v -71.594 l 94.78,84.204 v -192.814 h -57.763 v 69.152 z m 207.458,14.238 v 180.204 h 58.577 v -180.204 z m 69.56,0 102.104,188.745 102.51,-188.746 h -61.832 l -40.68,80.542 -39.863,-80.542 h -62.238 z m 214.374,0 v 180.204 h 114.307 v -47.187 h -55.73 v -28.068 h 55.73 v -33.764 h -55.73 v -24.813 h 55.73 v -46.373 H 585.627 Z m 235.933,83.39 22.373,46.78 h -44.34 z"
     fill="#ffffff"
     id="path4" />
</svg>
