<?xml version="1.0" encoding="UTF-8" standalone="no"?>
<svg
   width="2500"
   height="2500"
   viewBox="0 0 192.756 192.756"
   version="1.1"
   id="svg10"
   xmlns="http://www.w3.org/2000/svg"
   xmlns:svg="http://www.w3.org/2000/svg">
  <defs
     id="defs14" />
  <g
     fill-rule="evenodd"
     clip-rule="evenodd"
     id="g8">
    <path
       fill="#000000"
       d="M 0,0 H 192.756 V 192.756 H 0 Z"
       id="path2"
       style="fill:#000000;fill-opacity:0" />
    <path
       fill="#ffffff"
       d="m 10.182768,121.73359 h 6.673056 l 0.941685,-6.35997 h 4.867363 l 0.706264,-4.70961 H 18.58145 l 0.314293,-1.88457 h 5.494755 l 0.786331,-5.18045 H 13.086695 Z m 15.071738,0 h 6.437635 l 0.864008,-5.80906 h 0.157744 l 1.962242,5.80906 h 7.537063 L 39.2304,115.84446 c -0.314294,-0.54851 -0.628587,-0.864 -0.94288,-1.09942 v -0.15655 c 2.590828,-0.78394 3.846807,-1.96344 4.317649,-4.70962 0.707459,-4.55426 -2.511957,-6.28108 -6.594184,-6.28108 H 28.08195 Z m 8.478749,-13.18957 h 0.472038 c 1.177106,0 2.11879,0.15894 1.883368,1.57027 -0.23542,1.33485 -1.33485,1.4914 -2.355406,1.4914 h -0.470843 z m 21.822471,-5.25813 c -5.494755,0 -10.59754,3.76673 -11.539225,9.42042 -0.864008,5.80905 3.061671,9.26389 8.556426,9.26389 5.49595,0 10.519862,-3.45484 11.461548,-9.26389 0.941684,-5.65369 -2.982799,-9.42042 -8.478749,-9.42042 z m -0.941685,5.96559 c 2.041114,0 3.061671,1.64795 2.826249,3.53371 -0.393165,2.03992 -1.963437,3.53132 -4.00455,3.53132 -1.962242,0 -3.139348,-1.4914 -2.826249,-3.53132 0.315487,-1.88576 1.885759,-3.53371 4.00455,-3.53371 z m 10.598735,12.48211 h 6.279891 l 0.942879,-5.88913 c 0.156549,-1.25597 0.156549,-2.43188 0.156549,-3.61018 h 0.157744 l 4.317649,9.49931 h 6.279892 l 2.826249,-18.1358 h -6.279891 l -0.864008,5.41707 c -0.235421,1.57027 -0.156549,3.13935 -0.156549,4.63314 H 78.715437 L 74.397788,103.59779 H 68.04022 Z m 22.294508,-12.24669 3.610191,-0.15655 -1.961047,12.40324 h 6.592986 l 1.963434,-12.40324 3.610202,0.15655 0.94287,-5.88791 H 88.448969 Z m 14.443156,12.24669 h 6.59657 l 2.82386,-18.1346 h -6.51412 z m 10.59873,0 h 12.40323 l 0.78395,-4.94505 h -5.72898 l 0.23542,-1.80688 h 5.10159 l 0.70745,-4.70962 h -5.0251 l 0.23542,-1.72802 h 5.57363 l 0.78752,-4.94503 h -12.17021 z m 15.70152,0 h 6.43763 l 0.86401,-5.80906 h 0.15655 l 1.96344,5.80906 h 7.53467 l -2.98279,-5.88913 c -0.23304,-0.54851 -0.6274,-0.864 -0.94049,-1.09942 v -0.15655 c 2.59083,-0.78394 3.8468,-1.96344 4.31765,-4.70962 0.70506,-4.55426 -2.51436,-6.28108 -6.59658,-6.28108 h -7.92904 z m 8.47754,-13.18957 h 0.47205 c 1.17591,0 2.11878,0.15894 1.88337,1.57027 -0.15655,1.33485 -1.33485,1.4914 -2.35542,1.4914 h -0.47202 z m 10.36332,13.18957 h 12.40323 l 0.78394,-4.94505 h -5.73017 l 0.23543,-1.80688 h 5.10279 l 0.70625,-4.70962 h -5.02511 l 0.23662,-1.72802 h 5.57362 l 0.78394,-4.94503 h -12.16781 z m 15.22948,-1.41373 c 1.88337,1.02175 4.39533,1.65034 6.67067,1.65034 3.92567,0 8.16446,-2.12118 8.87191,-6.43764 0.47203,-3.06167 -1.33484,-4.55426 -4.00335,-5.18166 l -1.41492,-0.31548 c -0.47204,-0.15655 -1.25598,-0.23542 -1.1759,-0.94049 0.0765,-0.70746 1.02055,-0.94288 1.56787,-0.94288 1.41491,0 2.59083,0.62739 3.61259,1.41492 l 2.51196,-4.63314 c -1.64797,-1.09942 -3.45484,-1.64794 -5.49477,-1.64794 -3.92567,0 -8.24333,2.43188 -8.95079,6.74953 -0.39196,2.82625 1.4914,4.31765 4.00575,4.78969 l 1.25598,0.23542 c 0.62739,0.0788 1.4914,0.15655 1.33485,1.02056 -0.15894,0.78394 -1.1783,1.09943 -1.88576,1.09943 -1.4914,0 -2.74737,-0.78395 -3.84681,-1.72683 l -0.23542,-0.23542 z M 54.300943,82.168477 c -5.494755,0 -10.59754,3.689063 -11.539225,9.420435 -0.941685,5.73137 3.061671,9.262688 8.556426,9.262688 5.494755,0 10.519863,-3.531318 11.461547,-9.262688 0.862813,-5.731372 -3.062865,-9.420435 -8.478748,-9.420435 z m -0.941685,5.965597 c 2.041113,0 3.06167,1.570272 2.82625,3.532514 -0.393166,2.041114 -1.962243,3.454836 -4.003356,3.454836 -1.963437,0 -3.140543,-1.412527 -2.82625,-3.454836 0.313098,-1.962242 1.883369,-3.532514 4.003356,-3.532514 z M 76.595451,82.48277 75.02518,92.531791 c -0.235422,1.412527 -0.470843,2.668506 -2.197663,2.668506 -1.805693,0 -1.647948,-1.255979 -1.413723,-2.668506 L 72.984066,82.48277 h -6.515312 l -1.728015,10.676412 c -0.864008,5.260529 2.119985,7.692418 7.143898,7.692418 5.102785,0 8.791847,-2.431889 9.576982,-7.692418 L 83.18844,82.48277 Z m 21.667117,0 -3.690257,8.242133 a 8.3437103,8.3437103 0 0 0 -0.941682,2.668506 h -0.07893 c 0.07893,-0.941685 0.07893,-1.805693 -0.0777,-2.668506 L 92.374571,82.48277 h -6.829606 l 4.159906,18.05573 h 5.494758 L 105.0921,82.48277 Z m 6.043272,18.05573 h 12.40323 l 0.70747,-4.946233 h -5.73018 l 0.31429,-1.726821 h 5.10278 l 0.70507,-4.710814 h -5.10278 l 0.31549,-1.72682 h 5.57362 l 0.78395,-4.945042 h -12.16662 z m 15.54497,0 h 12.08774 l 0.94288,-5.810241 h -5.57362 l 1.96343,-12.245489 h -6.59418 z m 15.07054,0 h 12.09013 l 0.94288,-5.810241 h -5.49595 l 1.88338,-12.245489 h -6.51412 z m 15.70152,0 h 12.40323 l 0.78633,-4.946233 h -5.73257 l 0.23542,-1.726821 h 5.10278 l 0.70747,-4.710814 h -5.02391 l 0.23661,-1.72682 h 5.57124 l 0.78633,-4.945042 h -12.16782 z m 15.30835,-1.334848 c 1.88337,1.020568 4.39532,1.647948 6.67306,1.647948 3.92329,0 8.24093,-2.11879 8.86952,-6.436439 0.47204,-3.139348 -1.25597,-4.55307 -3.92328,-5.181657 l -1.49141,-0.39197 c -0.47203,-0.07768 -1.25836,-0.156549 -1.1783,-0.864009 0.15655,-0.706262 1.02056,-0.941684 1.57028,-0.941684 1.41252,0 2.59083,0.549715 3.61018,1.33485 l 2.51196,-4.630747 c -1.57027,-1.099429 -3.45484,-1.570272 -5.49476,-1.570272 -3.92568,0 -8.24333,2.434279 -8.87191,6.671862 -0.47204,2.826249 1.4914,4.396521 3.92568,4.788491 l 1.33485,0.235421 c 0.54852,0.157745 1.41253,0.235422 1.25597,1.020557 -0.0788,0.864008 -1.17829,1.098234 -1.80688,1.098234 -1.57027,0 -2.82625,-0.706263 -3.84681,-1.647948 l -0.31309,-0.235421 z M 13.950702,100.06647 h 5.730177 l 6.045665,-19.389392 5.809048,19.389392 h 5.180462 L 45.979938,70.785802 H 40.248567 L 34.282969,88.055203 29.651027,70.785802 H 23.92085 Z"
       id="path6"
       style="fill:#ffffff;fill-opacity:1;stroke-width:1.19503" />
  </g>
</svg>
