<?xml version="1.0" encoding="UTF-8" standalone="no"?>
<!-- Generator: Adobe Illustrator 25.0.1, SVG Export Plug-In . SVG Version: 6.00 Build 0)  -->

<svg
   version="1.0"
   id="Layer_1"
   x="0px"
   y="0px"
   viewBox="0 0 545.99998 545.99999"
   xml:space="preserve"
   width="546"
   height="546"
   xmlns="http://www.w3.org/2000/svg"
   xmlns:svg="http://www.w3.org/2000/svg"><defs
   id="defs15" />
<style
   type="text/css"
   id="style2">
	.st0{fill:#91C342;}
	.st1{fill:#014FA2;}
</style>
<g
   id="g10"
   transform="translate(0.3,87.7)">
	<path
   class="st0"
   d="m 246.6,97.3 c 6,4.3 13.3,9.4 16.6,18.5 5.4,15.1 -3.5,38.1 3.7,53.5 -8.6,-5 -15.4,-11.4 -16.6,-23.4 -1.9,-16.6 6.5,-37.7 -3.7,-48.6 z m 36.9,0 c 2.5,16.2 -5.2,27.7 -11.7,36.9 -7.7,-15.3 8.3,-24.7 11.7,-36.9 z m 51,5 c 1.1,2.1 -2.1,1.8 -3.1,2.5 -22.8,15 -47.7,33.2 -59.1,60.3 -2.1,-38.8 26.7,-57.3 62.2,-62.8 z"
   id="path4"
   style="fill:#ffffff;fill-opacity:1" />
	<path
   class="st1"
   d="M 241.7,93.6 C 166.3,128.9 129.5,202.9 92.8,277 86.9,223.8 82.2,169.4 77.4,115.2 c 7.3,1 16.4,0.4 24.6,0.6 1.8,36.9 5.3,72.2 7.4,108.9 C 137.5,165 176.2,115.9 241.7,93.6 Z"
   id="path6"
   style="fill:#ffffff;fill-opacity:1" />
	<path
   class="st1"
   d="m 415.1,144.1 c -5.8,17.7 -11.7,35.4 -17.2,53.5 22.1,1.4 47,0.2 70.1,0.6 -0.2,7.1 -8.3,5.5 -14.2,5.5 h -57.2 c -5.2,19.1 -12.4,52.1 7.4,60.3 14.1,4.8 31.4,-0.2 41.2,-5.5 5.3,-3 9.2,-8.5 15.4,-8.6 0.7,3.3 -3.7,5.8 -6.2,8 -9.8,8.2 -21.8,13.3 -34.5,14.8 -20.5,2 -42.2,-5.3 -48.6,-22.8 -4.7,-13 -0.4,-32.6 3.7,-45.5 -28.1,-1.5 -58.8,-0.2 -88,-0.6 -13,22.2 -12.1,70.9 26.5,60.9 4.8,-1.2 10.3,-3.4 14.8,-5.5 6.8,-3.3 11.9,-11 19.1,-9.2 1,2.7 -3.9,4.9 -6.8,7.4 -9,8.4 -20.4,13.8 -32.6,15.4 -23.2,2.3 -48.7,-9.3 -51.7,-30.8 -2.1,-15.6 3.1,-28.1 8.6,-38.1 h -87.4 c -14.2,23.4 -11.1,71.4 28.3,60.3 5.5,-1.6 11.9,-4.1 16.6,-6.8 4.9,-2.8 8.7,-8.9 15.4,-8 0.6,3.4 -3.6,5.8 -6.2,8 -10.3,8.6 -24,17.1 -44.9,15.4 -24.1,-2.1 -43.1,-16.2 -40,-45.5 0.6,-5.1 2.5,-11.4 4.3,-16 10.3,-24.4 32.8,-41.5 59.1,-44.9 15.4,-1.8 30,3 38.1,10.5 5.7,5.1 8.7,11.4 10.5,21.5 h 8.6 c 11.7,-19.9 50.6,-43.1 81.8,-27.7 10.7,5.3 18,15.8 19.1,27.7 h 7.4 c 3.4,-10.5 7,-20.5 9.8,-31.4 10.7,-7.1 18.2,-17 29.7,-22.9 z m -191.9,27.1 c -19.1,-5 -36.9,14.2 -42.5,27.1 h 55.4 c 0.8,-15 -3.1,-24.7 -12.9,-27.1 z m 110.7,0 c -19.7,-5.9 -38,14.3 -43.7,27.1 h 55.4 c 1,-14.3 -3,-24.6 -11.7,-27.1 z"
   id="path8"
   style="fill:#ffffff;fill-opacity:1" />
</g>
</svg>
