<svg
   height="2000"
   width="2500"
   version="1.1"
   id="Capa_1"
   viewBox="0 0 181.45 145.16"
   xml:space="preserve"
   xmlns="http://www.w3.org/2000/svg"
   xmlns:svg="http://www.w3.org/2000/svg"><defs
   id="defs11" />
<g
   id="g5197"
   transform="translate(-1.730376,-3.9595887)"><g
     id="g297"
     transform="translate(119.91022,35.860999)"><polygon
       style="fill:#e7eced"
       points="58.064,7.532 36,50.532 22,30.532 0,23.324 "
       id="polygon2" /><polygon
       style="fill:#afb6bb"
       points="22,30.532 20,46.532 28.594,39.952 "
       id="polygon4" /><path
       style="fill:#afb6bb"
       d="m 21.462,29.689 c -0.203,0.129 -0.329,0.324 -0.398,0.536 l 0.936,0.307 0.574,0.82 34.615,-22.115 0.875,-1.705 -3.345,0.91 z"
       id="path6" /></g><path
     style="fill:none;fill-opacity:1;stroke:#afb6bb;stroke-width:0.941363;stroke-linejoin:bevel;stroke-dasharray:7.5309, 7.5309;stroke-dashoffset:0;stroke-opacity:1;paint-order:normal"
     d="M 7.2842653,89.372334 C 17.419984,100.48843 31.805153,107.63001 46.787397,108.98382 c 6.225083,0.56251 12.591297,0.14798 18.54122,-1.76683 5.949924,-1.91481 11.471725,-5.38533 15.358629,-10.280231 2.477028,-3.119399 4.284952,-6.857518 4.662897,-10.822802 0.188973,-1.982642 0.01699,-4.005675 -0.570118,-5.908798 -0.587113,-1.903123 -1.593837,-3.683518 -2.972122,-5.121193 -1.494099,-1.55848 -3.420083,-2.700247 -5.506698,-3.25453 -2.086615,-0.554283 -4.327829,-0.51835 -6.393028,0.11105 -2.065199,0.6294 -3.94741,1.851316 -5.356164,3.487349 -1.408755,1.636033 -2.338358,3.681342 -2.635757,5.81974 -0.38672,2.780645 0.297555,5.653495 1.657196,8.109693 1.359642,2.456199 3.366198,4.514343 5.627069,6.178675 5.177607,3.811478 11.674756,5.588217 18.102576,5.722837 6.427819,0.13462 12.808393,-1.294511 18.879093,-3.411482 6.20506,-2.163823 12.15406,-5.051996 17.72036,-8.545006 5.32774,-3.343308 10.30716,-7.241332 14.8317,-11.610668"
     id="path2195" /></g></svg>
